<?xml version="1.0" standalone="no"?>
<!DOCTYPE svg PUBLIC "-//W3C//DTD SVG 1.1//EN" "http://www.w3.org/Graphics/SVG/1.1/DTD/svg11.dtd" >
<svg xmlns="http://www.w3.org/2000/svg">
<metadata>
This is a custom SVG webfont generated by Font Squirrel.
Copyright   : Copyright c 2010 Brian M Zick http21326infowith Reserved Font Name NeutonThis Font Software is licensed under the SIL Open Font License Version 11This license is available with a FAQ at httpscriptssilorgOFL
Designer    : Brian M Zick
</metadata>
<defs>
<font id="NeutonItalic" horiz-adv-x="842" >
<font-face units-per-em="2048" ascent="1638" descent="-410" />
<missing-glyph horiz-adv-x="397" />
<glyph unicode=" "  horiz-adv-x="397" />
<glyph unicode="&#x09;" horiz-adv-x="397" />
<glyph unicode="&#xa0;" horiz-adv-x="397" />
<glyph unicode="!" horiz-adv-x="438" d="M110 73q0 60 40.5 100t100.5 40q45 0 73.5 -31.5t28.5 -75.5q0 -60 -39 -99.5t-98 -39.5q-40 0 -73 34t-33 72zM232 377v3q55 687 85 872l1 4q7 17 51.5 28t87.5 11q24 0 41 -8.5t17 -25.5v-5q-31 -203 -197 -892v-7z" />
<glyph unicode="&#x22;" horiz-adv-x="513" d="M248 893l12 412l182 -16l-98 -384zM457 893l11 412l182 -16l-97 -384z" />
<glyph unicode="#" horiz-adv-x="961" d="M99 364l26 101h162l31 212h-162l23 101h156l30 175l102 10l-29 -185h205l28 175l103 8l-29 -183h169l-24 -101h-162l-31 -212h161l-24 -101h-156l-22 -185l-106 -9l26 194h-204l-24 -185l-106 -9l26 194h-169zM390 465h203l32 212h-205z" />
<glyph unicode="$" horiz-adv-x="868" d="M65 123l55 269l101 -15l8 -189q20 -42 64 -73t103 -36l75 476q-50 29 -77.5 47t-67.5 50t-61.5 60.5t-37.5 70.5t-16 88q0 22 4 50q11 69 44.5 130t82 103.5t106 71.5t120.5 42l22 135l128 16l-23 -143q141 -10 236 -100l-67 -284l-98 11l4 193q-8 25 -40 52t-73 38 l-71 -443l42 -24l45 -25l40 -25.5t41 -27.5l36 -29q22 -18 34 -33t26.5 -35.5t22 -41t13 -45t5.5 -50.5q0 -21 -4 -51q-22 -140 -134 -239.5t-262 -129.5l-24 -152l-134 -16l24 157q-97 5 -175.5 46.5t-116.5 100.5zM399 969q0 -100 113 -179l63 398q-67 -12 -114 -58 t-60 -128q-2 -17 -2 -33zM486 85q77 17 134 68.5t71 135.5q2 15 3 28q0 57 -36.5 101t-104.5 88z" />
<glyph unicode="%" horiz-adv-x="1173" d="M176 700q0 63 44 127.5t110 106.5q65 40 126 40q197 0 197 -226q0 -64 -44 -128t-109 -105q-65 -39 -122 -39q-95 0 -148.5 58.5t-53.5 165.5zM191 -28l824 1006l111 -9l-816 -1007zM305 711q0 -83 18 -117.5t68 -34.5q59 0 99 58.5t40 136.5q0 74 -18.5 106.5 t-68.5 32.5q-60 0 -99 -55t-39 -127zM672 185q0 63 44 129t110 108q66 41 126 41q197 0 197 -226q0 -64 -43.5 -128t-108.5 -105q-65 -39 -123 -39q-97 0 -149.5 57t-52.5 163zM801 197q0 -82 18.5 -115.5t68.5 -33.5q59 0 98.5 58.5t39.5 136.5q0 74 -18.5 106.5 t-68.5 32.5q-60 0 -99 -56t-39 -129z" />
<glyph unicode="&#x26;" horiz-adv-x="1335" d="M78 268q0 122 84 228q33 41 82.5 83.5t97.5 72.5t90 51q-103 99 -103 247q0 74 54 149.5t140 125.5q86 49 168 49q138 0 210.5 -57t72.5 -181q0 -94 -101 -185q-89 -78 -190 -133l-1 -12l236 -283l217 298l-162 42l21 76h450l-21 -76l-177 -38l-268 -371 q86 -114 182 -203q64 -59 102 -72l32 -10l-25 -69q-62 -20 -124 -20q-71 0 -143.5 59t-164.5 179q-33 -39 -59 -64.5t-67 -57.5q-46 -37 -90.5 -60t-104.5 -39q-62 -17 -126 -17q-160 0 -239 89q-73 81 -73 199zM276 364q0 -106 40 -177q45 -81 154 -81q50 0 105 21t97 54 q78 61 106 102l-293 347l-17 2q-79 -50 -135.5 -122.5t-56.5 -145.5zM495 1007q0 -111 130 -233q174 106 174 242q0 87 -33 130t-108 43q-64 0 -113.5 -56.5t-49.5 -125.5z" />
<glyph unicode="'" horiz-adv-x="305" d="M248 893l12 412l182 -16l-98 -384z" />
<glyph unicode="(" horiz-adv-x="483" d="M115 251q0 255 81 469q66 174 178 319q38 50 88.5 101.5t80.5 77.5q32 26 52 39l39 -66q-45 -50 -82 -100t-84 -136q-55 -98 -91 -201t-63 -245q-27 -148 -27 -307q0 -251 122 -520l-77 -58l-11 12q-9 9 -11 12t-9 10.5t-10 11.5l-10 13q-7 9 -13 18l-14 21q-8 12 -17 27 q-38 61 -60 123.5t-42 163.5q-20 102 -20 215z" />
<glyph unicode=")" horiz-adv-x="485" d="M-24 -318q77 102 126 184q230 385 242 821q1 16 1 48q0 264 -116 456l60 66l7 -7q39 -38 71 -79q44 -56 83 -142q39 -89 58 -223q9 -74 9 -148q0 -122 -23 -245.5t-61 -222.5q-34 -89 -84.5 -179.5t-98.5 -154.5q-41 -55 -91 -110t-78 -81q-6 -6 -45 -41z" />
<glyph unicode="*" horiz-adv-x="850" d="M156 966l53 127l267 -114l-12 -71zM274 687l190 218l65 -33l-153 -278zM441 1295l136 -13l-26 -288l-70 -11zM536 872l51 51l217 -230l-120 -69zM553 991l287 134l29 -134l-283 -65z" />
<glyph unicode="+" horiz-adv-x="689" d="M135 410l26 101h210l37 232l106 -12l-33 -220h220l-27 -101h-208l-37 -236l-109 11l36 225h-221z" />
<glyph unicode="," horiz-adv-x="447" d="M25 -245q93 24 151.5 77.5t58.5 106.5q0 45 -26 71t-75 26q-5 0 -30 -6q-7 31 -6 54q0 54 47 94t95 40q58 0 100 -35q49 -43 49 -152q0 -69 -46 -142q-56 -91 -165 -150q-65 -34 -142 -53z" />
<glyph unicode="-" horiz-adv-x="604" d="M165 399l11 101l409 18l-12 -101z" />
<glyph unicode="." horiz-adv-x="404" d="M99 73q0 60 40.5 100t100.5 40q45 0 73.5 -31.5t28.5 -75.5q0 -60 -39 -99.5t-98 -39.5q-40 0 -73 34t-33 72z" />
<glyph unicode="/" horiz-adv-x="516" d="M31 -364l463 1601l132 9l-466 -1602z" />
<glyph unicode="0" horiz-adv-x="1012" d="M175 448q0 154 44.5 292t117.5 234q74 97 164 149t182 52q74 0 138 -34q124 -73 172 -243q23 -91 23 -198q0 -168 -45 -307t-121 -236q-70 -89 -159.5 -136t-171.5 -47q-69 0 -135 31t-108 86q-50 62 -73 149q-28 90 -28 208zM341 412q0 -339 193 -339q142 0 222 134 q42 69 71 203q26 140 27 325q0 164 -46 253t-135 89q-72 0 -127 -33q-103 -65 -151 -212q-40 -123 -51 -289q-3 -43 -3 -131z" />
<glyph unicode="1" horiz-adv-x="786" d="M68 0l18 73l283 44l126 890h-265l16 77l412 74h27l-147 -1047l261 -30l-20 -81h-711z" />
<glyph unicode="2" horiz-adv-x="945" d="M74 0l9 103l261 200l146 116q154 123 233 274q38 77 38 166q0 83 -38 135q-45 56 -136 56q-50 0 -96 -23q-45 -25 -79 -59q-72 -79 -116 -167l-76 29q23 62 68.5 127t100.5 112q65 53 129 82q74 31 147 32q136 0 207 -71.5t71 -203.5q0 -201 -217 -408q-83 -81 -190 -159 l-174 -133l-85 -72h454l118 170l67 -9l-95 -297h-747z" />
<glyph unicode="3" horiz-adv-x="854" d="M73 99q0 38 36 70q38 32 103 39q0 -40 46 -91q23 -26 53 -43q26 -18 65 -18q155 0 225 101q43 66 43 154q0 38 -19 80.5t-51 75.5q-79 74 -195 74h-17v64q2 2 9 3q4 1 13 5q7 3 16 6q61 24 138 71q82 55 122 134q22 45 22 91q0 60 -34 97q-41 45 -114 45 q-74 0 -125.5 -38.5t-90.5 -110.5l-70 25q8 34 44 80.5t85 84.5q117 88 235 88q44 0 98 -16q94 -36 134 -116q20 -40 20 -88q0 -115 -86 -207q-77 -77 -190 -115l-1 -12q116 -19 179 -93q59 -68 59 -159q0 -82 -41 -160q-89 -155 -274 -218q-101 -31 -197 -32q-52 0 -106 12 q-91 26 -119 71q-15 22 -15 46z" />
<glyph unicode="4" horiz-adv-x="942" d="M78 422l709 746l60 -18q0 -1 -18 -100l-18 -117l-20 -131q-17 -127 -18 -134l-29 -200h247l-33 -122h-232l-44 -331l-169 -27l53 361h-477zM250 468h329l60 422z" />
<glyph unicode="5" horiz-adv-x="775" d="M109 41q225 20 349 105q126 84 126 213q0 258 -414 286l196 499l438 27l-45 -154l-362 -18l-83 -213q217 -14 343 -114q56 -46 86 -111t30 -138q0 -85 -41 -165t-118 -144q-79 -64 -205 -109q-125 -43 -295 -53z" />
<glyph unicode="6" horiz-adv-x="905" d="M142 334q0 168 108 359q49 84 119 165t145 141q160 130 340 189l28 -56q-96 -42 -187 -106q-76 -56 -146 -132.5t-112 -149.5q-45 -77 -70 -148h10q37 37 109 67q23 8 73 22q39 8 78 8q60 0 112 -25t88 -69q33 -41 55 -98q18 -55 18 -114q0 -82 -38 -157 q-82 -153 -243 -218q-79 -33 -166 -34q-88 0 -147 29q-63 31 -99 77q-74 89 -75 250zM326 336q0 -112 40 -192q18 -37 49 -61q28 -23 68 -23q134 0 199 99q46 81 46 203q0 87 -43 157q-49 73 -132 73q-16 0 -58 -6q-66 -18 -110 -43q-22 -15 -31 -27q-7 -26 -17.5 -81.5 t-10.5 -98.5z" />
<glyph unicode="7" horiz-adv-x="846" d="M170 887l62 269h756l-5 -51l-581 -1138l-88 30l495 1010h-503l-69 -134z" />
<glyph unicode="8" horiz-adv-x="913" d="M132 237q0 98 70.5 180t215.5 160l1 9q-24 14 -51 39q-65 53 -93 128q-14 38 -14 79v5q0 65 31 124q60 121 205 184q69 30 146 30q120 0 197 -72q32 -31 52 -74q18 -46 19 -93q0 -47 -19 -96q-22 -50 -49 -87q-30 -43 -73 -73q-42 -32 -88 -48l-3 -10q200 -145 200 -294 q0 -68 -32 -132.5t-91.5 -114.5t-144.5 -79q-85 -28 -190 -28q-131 0 -205 69q-41 36 -61 83q-23 50 -23 111zM299 275q0 -79 53 -146q24 -29 56 -46q29 -18 69 -18q126 0 182 56q56 59 56 152q0 36 -20 71q-22 35 -57 70q-35 32 -80 64l-89 65l-63 -50q-65 -55 -93 -124 q-14 -37 -14 -87v-7zM418 915q0 -76 56 -137q56 -60 147 -116q39 22 63 43q26 22 46 51q17 31 27 66q8 39 8 86q0 84 -45 139q-45 53 -112 53q-81 0 -142 -61q-48 -53 -48 -124z" />
<glyph unicode="9" horiz-adv-x="904" d="M177 741q0 176 146 311q69 64 147 98t150 34q156 0 242 -109q36 -46 56 -116q18 -69 18 -138q0 -150 -51.5 -291.5t-146.5 -256.5q-96 -117 -228 -195t-287 -104l-13 72q230 64 359 204q108 117 151 312h-17q-20 -22 -54 -44.5t-65 -32.5q-66 -28 -139 -28 q-124 0 -199 82q-69 79 -69 202zM346 789q0 -47 11 -86q12 -43 35 -71q48 -69 139 -70q26 0 55 7q50 7 109 43q22 14 38 36q14 45 18.5 63.5t8.5 50.5t4 77q0 39 -11 99q-10 41 -33 86q-22 36 -52 58q-30 23 -66 23q-132 0 -195 -93q-61 -83 -61 -223z" />
<glyph unicode=":" horiz-adv-x="468" d="M139 98q0 56 38.5 94t93.5 38q43 0 70.5 -30.5t27.5 -72.5q0 -56 -37 -93t-92 -37q-37 0 -69 32.5t-32 68.5zM235 725q0 56 38.5 94t93.5 38q43 0 69.5 -30t26.5 -71q0 -56 -37 -93.5t-92 -37.5q-37 0 -68 32t-31 68z" />
<glyph unicode=";" horiz-adv-x="493" d="M50 -233q88 24 142 72.5t54 99.5q0 43 -23.5 67.5t-70.5 24.5q-3 0 -28 -6q-7 28 -7 51q0 50 44.5 88t89.5 38q54 0 94 -34q45 -39 45 -142q0 -65 -43 -134q-51 -84 -154 -139q-58 -31 -133 -51zM260 725q0 56 38.5 94t93.5 38q43 0 69.5 -30t26.5 -71q0 -56 -37 -93.5 t-92 -37.5q-37 0 -68 32t-31 68z" />
<glyph unicode="&#x3c;" horiz-adv-x="741" d="M120 428l7 29l622 517l44 -71l-433 -448l309 -468l-74 -70z" />
<glyph unicode="=" horiz-adv-x="878" d="M174 319l28 106h615l-28 -106h-615zM215 559l28 106h616l-29 -106h-615z" />
<glyph unicode="&#x3e;" horiz-adv-x="743" d="M71 -13l455 468l-291 448l68 71l460 -517l-4 -29l-637 -511z" />
<glyph unicode="?" horiz-adv-x="684" d="M190 73q0 60 40.5 100t100.5 40q45 0 73.5 -31.5t28.5 -75.5q0 -60 -39 -99.5t-98 -39.5q-40 0 -73 34t-33 72zM245 1145q0 46 50 92q26 24 71 38.5t99 14.5q119 0 201 -103t82 -257q0 -128 -71 -196q-54 -51 -145 -97q-46 -23 -74.5 -41.5t-45.5 -45.5q-20 -29 -20 -67 q0 -46 7 -99l-76 -17q-45 84 -45 176q0 108 73 164q47 37 148 82q92 41 123 91q20 33 20 78q0 65 -42.5 111t-93.5 46q-125 0 -203 -71q-26 11 -42 38t-16 63z" />
<glyph unicode="@" horiz-adv-x="1391" d="M132 311q0 146 57 281.5t159 236.5q101 101 243 159t298 58q142 0 256.5 -54.5t182.5 -156.5q67 -102 67 -232q0 -103 -39 -200t-105 -171t-159.5 -118.5t-190.5 -44.5q-42 0 -68.5 26.5t-26.5 73.5q0 5 1 9t1 9h-8q-37 -55 -89.5 -91t-102.5 -36q-84 0 -128 62t-44 186 q0 101 39.5 194.5t104.5 155.5q63 61 134.5 97t134.5 36q90 0 166 -17l3 -1l17 -20l-53 -368q-20 -141 -20 -167q0 -50 23 -49q74 0 137.5 54t100.5 145q36 90 37 191q0 189 -111.5 293t-299.5 104q-117 0 -223.5 -51t-181.5 -138q-74 -87 -115.5 -198.5t-41.5 -227.5 q0 -227 130 -352t371 -125q87 0 188 34.5t158 73.5l10 8l35 -63l-9 -5q-84 -55 -162 -89q-112 -51 -259 -51q-199 0 -349 74q-84 41 -141.5 102t-91.5 152q-35 90 -35 205v6zM595 351q0 -73 9 -112q9 -36 23 -47.5t44 -11.5q74 0 142 75l68 438q-48 12 -88 12 q-53 0 -100.5 -55.5t-72.5 -139.5q-25 -81 -25 -159z" />
<glyph unicode="A" horiz-adv-x="1159" d="M-32 0l18 74l149 55l592 1110l147 31l189 -1146l124 -43l-18 -81h-485l20 74l172 55l-56 304h-401l-153 -309l170 -43l-22 -81h-446zM471 534h335l-79 502z" />
<glyph unicode="B" horiz-adv-x="1140" d="M65 0l18 74l168 47l171 986l-159 29l20 77q309 46 483 46q192 0 285 -80q84 -74 84 -175q0 -86 -54 -174q-60 -99 -198 -148l-1 -9q120 -7 187 -77.5t67 -173.5q0 -125 -95 -231q-107 -118 -294 -165q-102 -26 -226 -26h-456zM428 96h194q78 0 141.5 25.5t103.5 69.5 q78 85 78 199q0 93 -57.5 154t-156.5 61h-213zM534 690h199q96 0 154 72.5t59 193.5q0 88 -52 149q-59 68 -201 68q-38 0 -76 -7z" />
<glyph unicode="C" horiz-adv-x="1148" d="M168 483q0 146 59 297q65 168 179 283q132 134 300 183q94 26 195 26q217 0 327 -101l-82 -332l-81 13l-4 220q-28 49 -88 76.5t-145 27.5q-87 0 -168 -46t-144 -128q-64 -84 -100 -204.5t-36 -258.5q0 -107 28.5 -191.5t80.5 -136.5q103 -105 255 -105q183 0 347 152 l38 -55q-98 -116 -222.5 -172t-258.5 -56q-199 0 -337 130q-68 63 -105.5 161t-37.5 217z" />
<glyph unicode="D" horiz-adv-x="1349" d="M72 0l20 74l172 55l154 976l-161 30l20 76q305 50 500 50q263 0 412 -98q67 -44 111.5 -107.5t63.5 -136.5q18 -69 18 -153q0 -238 -153 -436q-160 -206 -416 -287q-135 -43 -288 -43h-453zM441 104h140q127 0 239 48.5t188 132.5q75 84 117 192.5t42 225.5 q0 194 -107 320q-54 64 -140.5 99.5t-195.5 35.5q-60 0 -118 -7z" />
<glyph unicode="E" horiz-adv-x="1135" d="M83 0l15 74l165 47l159 1007l-167 42l16 76h955l-80 -320l-81 14l-5 215h-451l-75 -477h278l61 119l91 14l-92 -389l-85 -13l-5 175h-263l-77 -488h474l131 230l78 -12l-79 -314h-963z" />
<glyph unicode="F" horiz-adv-x="1052" d="M83 0l15 74l165 47l159 1007l-167 42l18 76h951l-89 -321l-81 13v217h-445l-76 -483h274l61 120l87 14l-87 -392l-87 -15l-2 180h-261l-73 -457l222 -38l-20 -84h-564z" />
<glyph unicode="G" horiz-adv-x="1285" d="M212.5 740.5q42.5 129.5 116.5 225.5q152 194 370 263q104 33 213 33q266 0 392 -97l-77 -323l-81 15l-4 192q-30 50 -105.5 82t-188.5 32q-146 0 -260 -88q-127 -98 -176 -295q-27 -108 -27 -241q0 -228 97 -345.5t290 -117.5q125 0 178 46l50 313l-220 38l20 83h531 l-18 -75l-124 -41l-55 -352q-85 -57 -212.5 -88t-282.5 -31q-117 0 -209.5 39t-148.5 110q-111 140 -111 345q0 148 42.5 277.5z" />
<glyph unicode="H" horiz-adv-x="1406" d="M89 0l15 74l157 47l159 1007l-159 42l17 76h495l-17 -76l-159 -38l-68 -439h569l68 435l-160 42l18 76h495l-17 -76l-159 -38l-160 -1018l162 -33l-18 -81h-493l18 74l155 47l75 471l-571 -1l-74 -477l165 -33l-21 -81h-492z" />
<glyph unicode="I" horiz-adv-x="670" d="M83 0l15 74l165 47l159 1007l-167 42l16 76h520l-17 -76l-169 -38l-160 -1018l170 -33l-19 -81h-513z" />
<glyph unicode="J" horiz-adv-x="635" d="M-31 -238q134 116 203.5 218t88.5 217l148 931l-165 42l15 76h519l-13 -76l-169 -38l-120 -747q-34 -213 -84 -325q-29 -66 -61.5 -114t-82.5 -95q-49 -46 -102.5 -85.5t-138.5 -91.5q-26 39 -38 88z" />
<glyph unicode="K" horiz-adv-x="1210" d="M79 0l14 74l174 55l156 991l-172 50l19 76h525l-17 -76l-172 -47l-155 -999l173 -43l-18 -81h-527zM553 605l5 25q79 60 121 108l343 385l-148 47l15 76h475l-18 -76l-177 -47l-437 -473l174 -270q96 -147 154.5 -207t139.5 -89l33 -11l-21 -73q-63 -22 -126 -22 q-115 0 -200 83q-72 69 -139 200l-127 249q-45 74 -67 95z" />
<glyph unicode="L" horiz-adv-x="1076" d="M84 0l13 74l167 47l157 999l-172 50l20 76h524l-16 -76l-172 -47l-162 -1027h421l164 248l81 -13l-87 -331h-938z" />
<glyph unicode="M" horiz-adv-x="1647" d="M42 0l18 74l166 47l228 1007l-169 42l19 76h382l43 -194l132 -743l419 776l86 161h377l-17 -76l-167 -38l-109 -1018l169 -33l-18 -81h-510l18 74l164 47l86 885l-514 -955l-120 -20l-182 937l-195 -854l174 -33l-22 -81h-458z" />
<glyph unicode="N" horiz-adv-x="1359" d="M84 0l14 74l166 47l157 999l-165 50l16 76h334l460 -973l134 855l-170 42l18 76h453l-18 -76l-165 -38l-179 -1132l-146 -30l-476 993l-134 -849l172 -33l-18 -81h-453z" />
<glyph unicode="O" horiz-adv-x="1341" d="M175 506q0 162 53 304.5t149 245.5q97 103 234 161t294 58q108 0 196 -42t146 -118q116 -153 116 -381q0 -253 -127 -443q-134 -201 -354 -277q-113 -40 -242 -40h-6q-137 0 -243 69.5t-161 191.5q-55 121 -55 271zM394 528q0 -184 70 -311q36 -65 96 -101.5t138 -36.5 q159 0 261 86q89 74 137 205q39 110 50 238q4 60 4 107q-1 180 -71 316q-36 69 -97 108t-138 39q-79 0 -147.5 -23t-115.5 -63q-89 -75 -135 -207q-39 -112 -48 -245q-4 -60 -4 -112z" />
<glyph unicode="P" horiz-adv-x="1071" d="M77 0l16 74l168 47l153 986l-157 29l22 77q277 44 455 44h8q425 0 425 -299q0 -99 -40.5 -187.5t-110.5 -149.5q-69 -61 -159.5 -95.5t-184.5 -34.5q-50 0 -107 9l-7 82h52q175 0 263.5 86t88.5 250q0 118 -64 187.5t-187 69.5l-103 -5l-165 -1048l221 -38l-21 -84h-566z " />
<glyph unicode="Q" horiz-adv-x="1354" d="M174 506q0 160 55.5 303t156 246.5t239 161.5t293.5 58q107 0 195.5 -41t146.5 -116q118 -151 118 -380q0 -175 -69.5 -329.5t-198.5 -263.5q-131 -111 -299 -152q13 -56 35 -94.5t62 -72.5q81 -69 272 -102q-7 -48 -22 -75q-71 -34 -168 -34h-6q-128 0 -208.5 87.5 t-80.5 234.5q0 22 1 41q-12 -5 -61 -4q-137 0 -243.5 69.5t-162.5 191.5q-55 119 -55 271zM377 561q0 -145 51 -261q58 -136 177 -194q65 -33 151 -38q148 37 243 124q82 74 125 185q35 89 44 206q3 41 3 99q0 156 -52 278q-59 132 -156 183q-55 26 -116 27 q-218 0 -344 -162.5t-126 -446.5z" />
<glyph unicode="R" horiz-adv-x="1167" d="M78 0l16 74l168 47l155 982l-161 30l24 76q287 46 443 47q271 -1 375 -118q56 -65 57 -159q0 -117 -87 -220q-89 -103 -244 -158v-2l132 -250l65 -117q23 -41 59 -81q23 -28 70 -53q24 -13 44 -20l29 -10l-25 -68q-63 -22 -119 -22q-101 0 -172 69.5t-123 205.5l-109 285 h-165l-65 -412l174 -43l-19 -83h-522zM523 629h159q104 0 185 87t81 210q0 107 -60 176t-162 69q-26 0 -102 -3l-15 -2z" />
<glyph unicode="S" horiz-adv-x="913" d="M111 122l56 268l94 -14l5 -189q21 -51 67.5 -80t114.5 -29q73 0 140 30q74 34 105 104q17 40 17 85q0 77 -71 141q-64 56 -156 115q-90 57 -155 127q-71 75 -72 175q0 150 92 258q88 103 214 141q60 18 125 18q78 0 145 -24.5t108 -76.5l-65 -283l-94 12l5 192 q-7 31 -51 62.5t-95 31.5q-89 0 -148 -64t-59 -169q0 -93 93 -170q45 -37 90 -66q141 -93 190 -138q92 -84 92 -195q0 -89 -41.5 -168t-112.5 -132q-149 -109 -335 -109q-100 0 -184 42.5t-114 104.5z" />
<glyph unicode="T" horiz-adv-x="1112" d="M185 925l43 321h1061l-85 -338l-89 15v232h-290l-165 -1041l170 -33l-19 -81h-517l17 74l167 47l164 1034h-281l-90 -243z" />
<glyph unicode="U" horiz-adv-x="1358" d="M219 1170l18 76h517l-15 -76l-169 -38l-99 -637q-10 -62 -10 -111q0 -146 72.5 -218.5t206.5 -72.5q117 0 195 49q68 42 111 121q33 62 53 147q6 26 14 71l102 647l-165 42l15 76h456l-16 -76l-168 -38l-104 -632q-89 -526 -574 -526q-115 0 -203 41q-56 26 -93.5 66.5 t-61.5 105.5q-26 67 -26 157q0 56 10 126l105 658z" />
<glyph unicode="V" horiz-adv-x="1165" d="M157 1170l17 76h506l-15 -76l-169 -38l161 -881l441 877l-167 42l15 76h435l-15 -76l-130 -38l-586 -1127l-140 -30l-222 1153z" />
<glyph unicode="W" horiz-adv-x="1692" d="M167 1170l15 76h485l-20 -76l-167 -38l97 -859l422 923l166 25l81 -933l380 840l-164 42l17 76h428l-16 -76l-124 -38l-526 -1127l-146 -30l-89 978l-430 -948l-151 -30l-134 1153z" />
<glyph unicode="X" horiz-adv-x="1147" d="M12 0l19 74l121 47l429 488l-247 511l-117 50l18 76h496l-18 -76l-165 -47l170 -379l319 384l-172 42l18 76h432l-15 -76l-127 -38l-399 -480l242 -538l129 -33l-22 -81h-483l20 74l165 47l-188 402l-346 -409l171 -33l-19 -81h-431z" />
<glyph unicode="Y" horiz-adv-x="1057" d="M156 1170l19 76h478l-18 -76l-157 -38l192 -493l328 489l-166 42l15 76h423l-14 -76l-126 -38l-424 -603l-66 -415l154 -33l-18 -81h-485l17 74l150 47l61 385l-241 622z" />
<glyph unicode="Z" horiz-adv-x="1095" d="M86 0l7 104l876 1047h-537l-91 -246l-88 18l38 323h917l-12 -76l-898 -1069h534l142 250l91 -15l-82 -336h-897z" />
<glyph unicode="[" horiz-adv-x="441" d="M72 -377l261 1634h272l-4 -89l-144 -20l-221 -1408l139 -20l-25 -96z" />
<glyph unicode="\" horiz-adv-x="711" d="M251 1246l131 -9l210 -1601l-129 8z" />
<glyph unicode="]" horiz-adv-x="443" d="M-24 -376l5 96l146 20l221 1408l-137 20l26 89h272l-258 -1634z" />
<glyph unicode="^" horiz-adv-x="751" d="M187 827l354 412l56 13l230 -427l-63 -36l-228 286h-10l-294 -281z" />
<glyph unicode="_" d="M-21 -132l28 106h831l-28 -106h-831z" />
<glyph unicode="`" horiz-adv-x="634" d="M164 1663l116 38l132 -335l-58 -34z" />
<glyph unicode="a" horiz-adv-x="855" d="M120 275q0 112 31.5 212t85.5 174q108 147 256 201q71 25 138 25q130 0 185 -35l17 -18l-71 -455q-26 -175 -27 -217q0 -34 9.5 -48t33.5 -18l68 -12l-20 -69q-69 -30 -140 -30q-53 0 -86 25t-33 73v11l3 38h-12q-38 -68 -102 -111t-134 -43q-93 0 -147.5 79t-54.5 218z M282 321q0 -215 121 -215q50 0 88.5 23t83.5 73l86 546q-36 34 -114 34h-5q-74 0 -136 -69t-93 -178q-31 -103 -31 -214z" />
<glyph unicode="b" horiz-adv-x="866" d="M128 50l176 1095l-134 23l6 76l276 25l19 -23l-63 -402l-27 -121h12q41 70 115 119.5t141 49.5q65 0 119 -50t83 -132q28 -79 28 -174q0 -152 -67.5 -280.5t-186.5 -203.5q-120 -75 -265 -75q-63 0 -129 20t-103 53zM299 154q20 -30 63 -47.5t97 -17.5q65 0 127 53 q75 65 107 196q17 74 18 168q0 126 -63 203q-32 40 -76 40h-2q-56 0 -96.5 -19t-88.5 -63z" />
<glyph unicode="c" horiz-adv-x="666" d="M122 308q0 103 30 199.5t80 168.5q48 69 108 121t120 79q60 26 112 26q79 0 124 -39t45 -105q0 -48 -39 -79t-100 -35q-5 62 -20 106q-18 57 -59 57q-37 0 -76.5 -34t-74.5 -94q-35 -61 -56.5 -153.5t-21.5 -194.5q0 -112 38.5 -175t114.5 -63q53 0 92.5 14.5t90.5 48.5 l23 -50q-48 -60 -122 -98t-146 -38q-124 0 -193.5 88.5t-69.5 249.5z" />
<glyph unicode="d" horiz-adv-x="854" d="M119 271q0 103 30 202t82 173q108 156 248 213q69 28 135 28q47 0 69 -7h7l38 278l-142 26l13 73l276 25l20 -23l-137 -879q-26 -185 -27 -220q0 -33 9 -45.5t34 -16.5l66 -12l-19 -71q-86 -30 -139 -30q-58 0 -88 24t-32 65q0 23 5 58h-13q-38 -68 -102 -111t-134 -43 q-199 0 -199 293zM281 331q0 -117 30.5 -171t93.5 -54q50 0 84.5 21.5t79.5 74.5l88 544q-43 36 -118 36q-74 0 -135.5 -68t-91.5 -174q-31 -100 -31 -209z" />
<glyph unicode="e" horiz-adv-x="733" d="M126 306q0 156 56 290t157 215t222 81q94 0 141 -61.5t47 -175.5q0 -107 -48 -197l-408 -18q-7 -43 -8 -91q0 -130 60 -189q57 -57 146 -57q36 0 103 26.5t86 47.5l26 -45q-41 -63 -129.5 -112.5t-179.5 -49.5q-74 0 -129 28t-86 78q-56 93 -56 230zM304 513l272 21 q21 43 21 113v6q-4 146 -96 146q-58 0 -112 -70q-55 -70 -85 -216z" />
<glyph unicode="f" horiz-adv-x="588" d="M50 0l17 76l124 33l106 677h-119l16 68l119 36q22 106 80.5 198t137.5 147q79 54 156 54q81 0 124 -28.5t43 -85.5q0 -33 -26 -61t-76 -42q-11 32 -53 60.5t-84 28.5q-59 0 -89 -68q-23 -52 -37 -135l-13 -83h187l-25 -89h-176l-107 -677l208 -30l-18 -79h-495z" />
<glyph unicode="g" horiz-adv-x="830" d="M-5 -202q0 134 194 220v8q-42 22 -59.5 48.5t-18.5 71.5q0 41 65 98.5t132 83.5l1 8q-45 12 -86 77t-41 137q0 88 56.5 170t146.5 131q85 47 171 47q100 0 157 -63l212 15l16 -23l-54 -111h-17l-119 40l-2 -17q15 -50 15 -107q0 -84 -54.5 -162t-137.5 -123 q-81 -44 -155 -44q-40 0 -70 10l-18 -19q-17 -17 -20 -22q-6 -8 -8 -11q-6 -8 -8 -15q0 -1 -2 -6t-4 -8q-6 -15 -6 -33q0 -31 35 -40q32 -8 131 -8h87q246 0 247 -151q0 -65 -30.5 -126.5t-84.5 -108.5q-112 -99 -248 -134q-67 -18 -129 -18q-170 0 -250 79q-44 44 -44 106z M182 -149q0 -131 170 -131q111 0 180.5 55.5t69.5 148.5q0 43 -48 61q-47 18 -162 18h-139q-2 -2 -7 -5q-20 -15 -39 -46q-25 -41 -25 -101zM347 553q0 -74 31 -123.5t77 -49.5q69 0 114.5 78.5t45.5 203.5q0 76 -24.5 119t-67.5 43q-74 0 -125 -78.5t-51 -192.5z" />
<glyph unicode="h" horiz-adv-x="899" d="M27 0l22 74l121 34l165 1037l-134 23l10 76l275 25l21 -23l-63 -399l-28 -124h12q56 74 131.5 123t152.5 49q147 0 147 -180q0 -55 -8 -101l-83 -513l124 -28l-21 -73h-271l84 526q8 55 8 93q0 127 -87 127q-41 0 -80 -13t-62 -31t-45 -39l-90 -560l123 -32l-18 -71h-406 z" />
<glyph unicode="i" horiz-adv-x="497" d="M61 0l18 73l123 33l101 642l-131 21l10 76l275 25l19 -23l-115 -744l125 -32l-16 -71h-409zM324 1199q0 46 35.5 79t83.5 33q50 0 86.5 -33t36.5 -80q0 -50 -36.5 -86.5t-86 -36.5t-84.5 36.5t-35 87.5z" />
<glyph unicode="j" horiz-adv-x="441" d="M-84 -308q222 162 258 407l103 650l-133 22l10 76l274 25l22 -23l-121 -763q-12 -76 -44 -149t-72 -126q-36 -46 -84 -88t-89 -69q-40 -25 -75 -41zM298 1196q0 47 37 82t85 35q52 0 90.5 -35.5t38.5 -84.5q0 -51 -38.5 -89.5t-90.5 -38.5q-50 0 -86 39.5t-36 91.5z" />
<glyph unicode="k" horiz-adv-x="861" d="M30 0l16 74l124 34l166 1037l-133 21l12 76l271 25l24 -23l-181 -1140l126 -31l-17 -73h-408zM405 435l4 17l263 319l-123 33l15 71h381l-22 -76l-132 -33l-240 -278l50 -104l24 -53l43 -93q15 -32 41 -73q16 -25 45 -53q22 -20 57 -31q14 -6 36 -8l35 -5l-22 -68 q-19 -6 -63 -13t-71 -7q-66 0 -115 43q-41 36 -92 146q-21 43 -52 119z" />
<glyph unicode="l" horiz-adv-x="466" d="M29 0l18 74l123 34l165 1037l-132 21l11 76l272 25l21 -23l-179 -1140l128 -31l-18 -73h-409z" />
<glyph unicode="m" horiz-adv-x="1367" d="M63 0l21 76l121 33l96 634l-131 21l14 83l281 25l21 -23l-31 -126h12q26 45 99 102q38 31 87.5 50.5t97.5 19.5q66 0 104 -38t38 -113v-13h12q124 164 278 164q74 0 108 -43.5t34 -133.5q0 -44 -8 -104l-75 -513l124 -28l-21 -73h-263l-12 13l80 513q8 58 8 96 q0 126 -76 126q-108 0 -192 -85q-12 -85 -23 -153l-25 -158l-40 -249l124 -29l-21 -74h-263l-12 15l83 511q10 57 10 104q0 117 -78 118q-101 0 -188 -85l-88 -559l122 -31l-18 -73h-410z" />
<glyph unicode="n" horiz-adv-x="927" d="M63 0l21 74l121 34l96 635l-131 21l14 83l278 25l21 -23l-35 -126h12q52 69 134.5 120.5t153.5 51.5t105.5 -40t34.5 -132q0 -45 -10 -109l-79 -510l124 -28l-21 -73h-267l-11 12l82 511q12 84 12 113q0 58 -20 81.5t-63 23.5q-101 0 -183 -79l-90 -559l123 -32l-18 -74 h-404z" />
<glyph unicode="o" d="M122 329q0 103 35.5 206t97.5 183q62 81 150.5 129t185.5 48q132 0 197.5 -92t65.5 -267q0 -103 -33.5 -204t-92.5 -181q-60 -81 -145 -129t-178 -48q-89 0 -154 46.5t-97 127.5q-31 80 -32 181zM306 323q0 -155 60 -234q31 -41 72 -41q69 0 127.5 72.5t89.5 189.5 q30 114 30 240q0 125 -36.5 196t-100.5 71q-59 0 -106.5 -41t-76.5 -113q-59 -146 -59 -340z" />
<glyph unicode="p" horiz-adv-x="905" d="M-12 -369l20 75l121 33l146 1007l-133 22l12 76l278 28l20 -23l-32 -128h12q34 65 108 118t138 53q99 0 168 -104t69 -255q0 -124 -40 -230.5t-108 -176.5q-67 -69 -152 -106.5t-175 -37.5q-65 0 -93 11l22 115q14 -7 42 -13t46 -6q54 0 100 14q31 9 55 24t49 45 q50 59 69 174q11 61 11 140q0 117 -38.5 189.5t-93.5 72.5q-56 0 -94 -18t-93 -68l-139 -925l155 -31l-18 -72z" />
<glyph unicode="q" horiz-adv-x="828" d="M117 265q0 97 27.5 191.5t78.5 171.5q105 163 248 226q74 31 145 31q64 0 104 -20l100 15l16 -7l-168 -1136l135 -31l-18 -72h-447l20 75l154 33l147 1004q-59 35 -114 35q-60 0 -111.5 -42.5t-83.5 -112.5q-65 -141 -65 -295q0 -100 31 -164t85 -64q86 0 141 44l8 -51 q-45 -59 -100 -88.5t-138 -29.5q-91 0 -143 79t-52 208z" />
<glyph unicode="r" horiz-adv-x="621" d="M63 0l21 74l119 34l100 635l-133 21l12 83l275 25l21 -23l-46 -191h15q79 235 188 235q32 0 55 -24t23 -58q0 -40 -16.5 -79t-38.5 -50q-20 12 -35 14t-52 2q-30 0 -69 -39.5t-65 -89.5l-80 -463l174 -32l-18 -74h-450z" />
<glyph unicode="s" horiz-adv-x="650" d="M81 122q0 50 33 85t89 41q47 -193 142 -193h1q55 0 97 35t42 92q0 60 -108 143q-81 64 -111 95q-32 35 -54 74q-31 56 -32 121q0 53 25 105.5t68 94.5q43 41 103 64.5t124 23.5q83 0 131.5 -36t48.5 -103q0 -66 -33.5 -104t-95.5 -45l-3 24q-15 188 -99 188h-1 q-55 0 -88.5 -33.5t-33.5 -95.5q0 -94 107 -185l25 -21l27 -23l25 -22l25 -24l21 -22q12 -13 23 -27l19 -26q31 -50 31 -103q0 -100 -76 -174q-74 -69 -163 -93q-45 -12 -84 -13q-102 0 -163.5 45t-61.5 112z" />
<glyph unicode="t" horiz-adv-x="564" d="M159 778l10 47q64 45 118.5 104t124.5 153h64l-34 -209h215l-20 -95h-215l-68 -431q-13 -88 -13 -114q0 -50 15 -81t48 -31q76 0 155 33l13 -51q-48 -53 -115 -89t-131 -36q-72 0 -110.5 44.5t-38.5 129.5q0 53 10 108l83 518h-111z" />
<glyph unicode="u" horiz-adv-x="906" d="M141 771l10 74l282 25l20 -23l-79 -471q-16 -97 -16 -153t18.5 -81t61.5 -25q98 0 181 83l82 548l-134 23l10 74l287 25l19 -23l-76 -476q-23 -150 -23 -201q0 -39 9.5 -54.5t33.5 -19.5l66 -12l-18 -69q-69 -30 -140 -30q-60 0 -90 28t-30 86q0 17 2 32h-10 q-31 -56 -105 -103.5t-158 -47.5q-154 0 -154 184q0 41 9 101l72 483z" />
<glyph unicode="v" horiz-adv-x="768" d="M120 804l18 71h379l-18 -69l-123 -38l70 -553l240 556l-123 33l17 71h332l-20 -74l-99 -35l-365 -776l-105 -18l-107 801z" />
<glyph unicode="w" horiz-adv-x="1168" d="M122 804l18 71h354l-18 -74l-121 -33l49 -406l9 -135l246 584l134 18l60 -482l5 -132l230 558l-121 31l16 71h326l-19 -74l-96 -33l-338 -780l-106 -18l-79 634l-260 -616l-116 -18l-76 803z" />
<glyph unicode="x" horiz-adv-x="856" d="M19 0l20 69l94 35l288 331l-154 338l-96 29l18 71h381l-20 -69l-117 -31l112 -237l187 233l-104 33l18 71h313l-22 -71l-99 -36l-260 -301l172 -361l95 -35l-19 -69h-395l20 69l122 35l-114 248l-200 -246l127 -35l-20 -71h-347z" />
<glyph unicode="y" horiz-adv-x="832" d="M-56 -268q0 71 71 127q67 -54 139 -54h3q49 0 86 29.5t83 115.5l18 35l-127 788l-95 31l17 71h385l-18 -69l-124 -40l85 -541l281 546l-123 33l20 71h334l-20 -74l-95 -32l-429 -822q-96 -184 -176 -255.5t-185 -71.5q-65 0 -97.5 30t-32.5 82z" />
<glyph unicode="z" horiz-adv-x="746" d="M68 0l8 79l543 712h-286l-88 -169l-66 12l48 241h579l-10 -68l-551 -719h303l115 163l63 -8l-79 -243h-579z" />
<glyph unicode="{" horiz-adv-x="528" d="M60 390l14 100l50 8q58 10 98.5 56.5t60.5 117.5q21 74 33 146q37 205 79 298q30 66 86.5 103.5t138.5 37.5h58l-25 -99l-39 -7q-66 -11 -93 -138q-12 -58 -22 -125q-25 -172 -63 -270q-25 -64 -70.5 -110t-107.5 -63l-2 -7q67 -20 95.5 -76t28.5 -149q0 -69 -19 -202 q-20 -132 -20 -180q0 -96 58 -104l33 -5l-9 -101h-61q-100 0 -144 54.5t-44 159.5q0 62 18 189t18 184q0 79 -23 122t-78 52z" />
<glyph unicode="|" horiz-adv-x="381" d="M77 -351l255 1608l114 -11l-255 -1610z" />
<glyph unicode="}" horiz-adv-x="527" d="M-16 -379l25 101l33 5q72 11 101 139q11 45 24 126q25 165 65 273q24 64 69.5 110.5t107.5 62.5l2 7q-122 36 -122 213q0 65 21.5 203.5t21.5 184.5q0 50 -11.5 75t-40.5 30l-39 7l8 99h60q110 0 149 -63q36 -59 36 -155q0 -60 -18 -190q-17 -130 -17 -184 q0 -74 24 -115.5t79 -51.5l46 -8l-15 -100l-53 -8q-91 -14 -133 -114q-32 -75 -58 -223q-28 -165 -56 -237q-47 -122 -131 -162q-51 -25 -117 -25h-61z" />
<glyph unicode="~" horiz-adv-x="948" d="M164 414q0 1 6 21q22 65 53 108q21 29 52.5 49t65.5 20h13l447 -45h5q16 0 35.5 14.5t33.5 32.5l12 15l64 -2q-1 -2 -3 -9.5t-3 -12.5q-6 -18 -22 -52t-34 -58q-22 -30 -54.5 -51t-66.5 -21q-4 0 -7.5 1t-7.5 1l-447 45h-5q-17 0 -37.5 -16t-33.5 -36l-12 -18z" />
<glyph unicode="&#xa1;" horiz-adv-x="412" d="M52 -357q31 203 197 891v7l86 -20v-3q-55 -687 -84 -872l-2 -3q-7 -17 -51.5 -28.5t-87.5 -11.5q-24 0 -41 8.5t-17 26.5v5zM214 792q0 60 39.5 99.5t98.5 39.5q40 0 72.5 -33.5t32.5 -72.5q0 -60 -40 -100t-100 -40q-45 0 -74 32t-29 75z" />
<glyph unicode="&#xa2;" horiz-adv-x="845" d="M141 334q0 89 26.5 174.5t73.5 151.5q91 131 221 195q60 30 121 40l37 121l122 21l-41 -140q89 -9 127 -42.5t38 -93.5q0 -45 -40 -79.5t-102 -39.5q-2 37 -18.5 76.5t-46.5 62.5l-195 -677q40 -18 101 -18q57 0 106 17t112 53q8 -15 14 -57q-74 -67 -156 -98t-185 -31 q-18 0 -32 2l-24 -86l-123 -20l40 134q-98 50 -139 146q-36 87 -37 188zM347 407q0 -84 8 -127t36 -96l176 620q-81 -21 -150.5 -141.5t-69.5 -255.5z" />
<glyph unicode="&#xa3;" horiz-adv-x="1148" d="M60 0l20 74l174 47q31 66 49.5 134t44.5 207l15 87l-180 -10l28 101l172 10l25 137q45 239 179 354q128 111 302 111q139 0 228 -39l-82 -316l-83 13l-8 213q-39 23 -81 23q-97 0 -152 -57q-50 -53 -88 -209q-18 -74 -37 -175l-8 -48l223 13l-28 -101l-211 -13l-9 -40 q-53 -299 -127 -417l462 -3l170 253l83 -18l-90 -331h-991z" />
<glyph unicode="&#xa4;" horiz-adv-x="815" d="M145 255l96 78q-17 35 -22 54t-5 56q0 32 23 95t45 91l-76 86l98 82l62 -87q37 27 82 43t82 16q42 0 82.5 -13t66.5 -36l91 79l63 -88l-97 -74q12 -27 15 -43.5t3 -57.5q0 -55 -20.5 -107t-51.5 -87l81 -86l-100 -82l-65 91q-88 -48 -164 -48q-64 0 -127 41l-91 -89z M327 475q0 -84 30.5 -122.5t98.5 -38.5q74 0 132 57.5t58 134.5q0 85 -32.5 125.5t-103.5 40.5q-73 0 -128 -58t-55 -139z" />
<glyph unicode="&#xa5;" horiz-adv-x="1137" d="M194 240l29 106h300l20 127h-308l28 106h265l-154 549l-132 42l26 76h468l-25 -76l-137 -38l132 -490l296 486l-152 42l23 76h397l-23 -76l-129 -38l-342 -553h304l-28 -106h-316l-20 -127h325l-30 -106h-313l-20 -126l159 -33l-21 -81h-508l21 74l157 47l19 119h-311z " />
<glyph unicode="&#xa6;" horiz-adv-x="377" d="M78 -351l124 783l109 -12l-124 -784zM218 541l115 716l109 -11l-119 -717z" />
<glyph unicode="&#xa7;" horiz-adv-x="801" d="M5 -237l55 268l101 -14l9 -190q22 -46 72.5 -78t117.5 -32q42 0 84.5 12.5t82 36.5t68.5 66t37 96q2 14 2 27q0 40 -20.5 75t-54.5 61t-77.5 54.5t-89 53t-88.5 57t-77 66.5t-55 82.5t-21 104.5q0 29 5 52q3 23 11 49l326 -202l63 -37l68 -40q26 -16 62 -40.5t58.5 -48 t44.5 -53t32 -65.5t10 -77q0 -29 -4 -52q-13 -84 -62.5 -156.5t-119 -121t-154.5 -75.5t-171 -27q-103 0 -188.5 42.5t-126.5 105.5zM211 869q0 29 4 52q17 109 87.5 192t165 123.5t195.5 40.5q163 0 268 -101l-67 -284l-98 11l4 193q-11 32 -55 63.5t-100 31.5 q-81 0 -140 -48t-74 -141q-2 -16 -2 -32q0 -50 27 -91.5t70.5 -72.5t95.5 -61l104 -62q53 -32 96.5 -69t71 -90t27.5 -116q0 -29 -4 -52q-5 -31 -13 -54l-372 228q-117 69 -155 99q-124 94 -135 216q-1 12 -1 24z" />
<glyph unicode="&#xa8;" horiz-adv-x="687" d="M124 1467q0 34 25.5 56t58.5 22q36 0 61 -22.5t25 -55.5q0 -35 -25 -58t-61 -23q-35 0 -59.5 23.5t-24.5 57.5zM392 1467q0 34 25.5 56t58.5 22q36 0 62 -22.5t26 -55.5q0 -35 -26 -58t-62 -23q-35 0 -59.5 23.5t-24.5 57.5z" />
<glyph unicode="&#xa9;" horiz-adv-x="1404" d="M164 493q0 237 108 420q104 177 272 274q169 97 356 97q108 0 199 -29t155 -79q124 -100 166 -257q19 -74 19 -153q0 -149 -41 -278.5t-114 -224.5q-72 -93 -168 -159t-206 -98q-111 -32 -227 -32q-105 0 -192.5 28.5t-148.5 78.5q-120 98 -159 257q-19 74 -19 155z M280 510q0 -150 62 -258q67 -118 203 -161q70 -23 161 -23q198 0 354 113q167 121 231 327q34 112 34 240q0 146 -64 253q-72 122 -209 167q-74 25 -165 25q-194 0 -346 -114q-165 -123 -228 -330q-33 -110 -33 -232v-7zM506 539q0 84 24.5 163.5t65.5 139.5q82 118 188 164 q48 21 89 21h4q65 0 102 -32t37 -87q0 -39 -33 -63.5t-83 -28.5q-4 74 -28 110q-15 23 -37 24q-70 0 -129.5 -115t-59.5 -278q0 -92 32 -143.5t95 -51.5q80 0 150 53l20 -43q-38 -48 -99.5 -79.5t-120.5 -31.5q-102 0 -159.5 74t-57.5 204z" />
<glyph unicode="&#xaa;" horiz-adv-x="541" d="M151 288l16 58h339l-16 -58h-339zM200 467q0 53 48 86t156 52l5 27q3 23 3 38q0 68 -53 68q-19 0 -33 -13q-7 -6 -17 -37q-3 -12 -8 -28q-50 0 -50 33q0 32 49 58.5t99 26.5q43 0 62.5 -20.5t19.5 -62.5q0 -15 -3 -42l-23 -145q-2 -12 -2 -20q0 -16 8.5 -23.5t29.5 -9.5 l20 -3l-11 -35q-1 0 -4.5 -1t-6.5 -1.5t-6 -0.5q-21 -5 -38 -5q-26 0 -41 12.5t-15 31.5q0 2 0.5 5t0.5 5v5h-5q-13 -24 -47.5 -42.5t-71.5 -18.5q-31 0 -48.5 16t-17.5 44zM273 490q0 -40 38 -40q41 0 76 43l13 84q-70 -10 -98.5 -30.5t-28.5 -56.5z" />
<glyph unicode="&#xab;" horiz-adv-x="652" d="M94 450v20l325 352l36 -59l-213 -301l117 -321l-63 -63zM342 450v20l325 352l36 -59l-213 -301l117 -321l-63 -63z" />
<glyph unicode="&#xac;" horiz-adv-x="969" d="M188 559l28 106h746l-48 -314l-109 -18l36 226h-653z" />
<glyph unicode="&#xad;" horiz-adv-x="641" d="M191 407l8 116l409 59l-8 -115z" />
<glyph unicode="&#xae;" horiz-adv-x="598" d="M236 1019q0 87 38 155.5t99 102.5q58 33 127 33q93 0 144.5 -54t51.5 -138q0 -125 -80 -202t-195 -77q-89 0 -137 50.5t-48 129.5zM277 1029q0 -69 39.5 -113t112.5 -44q128 0 195 110q34 56 34 133q0 72 -43 118t-120 46q-91 0 -154.5 -69.5t-63.5 -180.5zM330 955l5 18 l36 8l32 199l-35 6l5 18q70 7 89 7q56 0 78.5 -12.5t22.5 -43.5q0 -21 -17.5 -41t-48.5 -32l32 -55q22 -41 49 -53l7 -1l-8 -18q-9 -3 -25 -4q-42 0 -66 55l-25 56h-32l-11 -79l33 -10l-5 -18h-116zM434 1087h35q17 0 30 18.5t13 42.5q0 40 -48 40l-15 -2z" />
<glyph unicode="&#xaf;" horiz-adv-x="702" d="M124 1381l13 100h442l-13 -100h-442z" />
<glyph unicode="&#xb0;" horiz-adv-x="435" d="M228 1079q0 85 61.5 146.5t138.5 61.5q73 0 102 -28t29 -99q0 -74 -63 -142t-135 -68q-63 0 -98 36t-35 93zM303 1102q0 -47 19.5 -75.5t57.5 -28.5q46 0 76 38t30 109q0 38 -19 66t-58 28q-44 0 -75 -41t-31 -96z" />
<glyph unicode="&#xb1;" horiz-adv-x="799" d="M108 13l33 104l614 7l-33 -104zM171 476l27 101h210l36 232l106 -12l-33 -220h220l-26 -101h-209l-36 -236l-110 11l37 225h-222z" />
<glyph unicode="&#xb2;" horiz-adv-x="320" d="M225 1012l3 32l101 86q53 43 53 97q0 43 -35 43h-1q-30 0 -42 -72q-22 2 -29 8t-7 21q0 27 35.5 52t68.5 25q31 0 48.5 -18.5t17.5 -49.5q0 -38 -23 -67t-86 -79l-44 -35h132l-15 -43h-177z" />
<glyph unicode="&#xb3;" horiz-adv-x="320" d="M220 989v7q2 14 16 23t29 12q0 -38 10 -52q8 -10 26 -10q26 0 43 18.5t22 46.5q0 4 0.5 6.5t0.5 6.5q0 25 -15 42.5t-39 17.5q-9 0 -18 -1t-19 -1v17v10v1q1 0 9 3q20 5 34 10q17 7 39 26q20 17 24 47q0 3 1 5.5t1 6.5q0 17 -10.5 28t-27.5 11t-31 -17.5t-19 -51.5 q-36 2 -36 25v5q5 30 41 51.5t68 21.5q29 0 47.5 -17.5t18.5 -42.5q0 -3 -1 -5.5t-1 -6.5q-3 -28 -23 -54.5t-49 -41.5v-4q29 -8 45 -28.5t16 -46.5q0 -4 -1 -7.5t-1 -7.5q-7 -41 -41 -71.5t-78 -30.5q-42 0 -61.5 14t-19.5 35z" />
<glyph unicode="&#xb4;" horiz-adv-x="619" d="M230 1383l122 326l113 -40l-184 -317z" />
<glyph unicode="&#xb5;" horiz-adv-x="911" d="M78 -362q0 1 1.5 8t5 25t7.5 36l72 366q45 226 76 422l38 243l-132 35l10 76l277 21l22 -25l-86 -529q-8 -55 -8 -88q0 -58 20 -84.5t62 -26.5q98 0 181 83l82 548l-134 23l10 74l286 25l20 -23l-76 -476q-23 -150 -23 -201q0 -39 9.5 -54.5t33.5 -19.5l66 -12l-18 -69 q-69 -30 -141 -30q-60 0 -89.5 28t-29.5 86q0 17 2 32h-10q-30 -55 -101 -103t-145 -48q-93 0 -121 43h-8q0 -47 -9 -124l-26 -288z" />
<glyph unicode="&#xb6;" horiz-adv-x="1325" d="M233.5 975.5q44.5 89.5 119.5 147.5q74 59 165 91.5t182 32.5l746 -1l-23 -76l-176 -38l-162 -1018l177 -33l-21 -81h-727l20 74l174 47l58 365q-65 -5 -131 -5q-208 0 -320 62q-126 68 -126 241q0 102 44.5 191.5zM400 821q0 -79 32 -135q36 -65 125 -92q49 -15 111 -15 l108 7l5 -5l91 574q-37 1 -72 1h-34q-171 0 -268.5 -86.5t-97.5 -248.5zM873 114l22 -3l40 10l160 1007l-36 8l-23 -4z" />
<glyph unicode="&#xb7;" horiz-adv-x="430" d="M175 486q0 57 41.5 95t96.5 38q47 0 74 -31.5t27 -81t-43 -87t-96 -37.5q-99 0 -100 104z" />
<glyph unicode="&#xb8;" horiz-adv-x="384" d="M83 -331q41 14 63.5 36.5t22.5 46.5q0 41 -73 111l98 140h74l-55 -79q89 -78 90 -151q0 -103 -200 -163z" />
<glyph unicode="&#xb9;" horiz-adv-x="270" d="M217 1011l6 23l53 13l32 199h-47l5 23l90 23h8l-38 -246l53 -10l-8 -25h-154z" />
<glyph unicode="&#xba;" horiz-adv-x="551" d="M156 288l16 58h339l-16 -58h-339zM208 546q0 69 31 123t79 80q45 25 91 25q56 0 81 -31q20 -26 24 -89q2 -31 2 -62q0 -81 -52 -135.5t-125 -54.5q-131 0 -131 144zM285 550q0 -49 17.5 -78.5t53.5 -29.5q43 0 72.5 48.5t29.5 128.5q0 114 -71 114q-45 0 -73.5 -47.5 t-28.5 -135.5z" />
<glyph unicode="&#xbb;" horiz-adv-x="652" d="M89 141l220 321l-117 301l53 59l212 -352l-4 -20l-321 -372zM337 141l220 321l-117 301l53 59l212 -352l-4 -20l-321 -372z" />
<glyph unicode="&#xbc;" horiz-adv-x="1050" d="M151 505l6 29l117 19l44 366h-108l6 31l169 31h10l-53 -430l109 -13l-8 -33h-292zM155 -30l816 995l82 9l-813 -996zM602 174l286 307l26 -8q-12 -69 -28 -198l-10 -82h103l-13 -51h-96l-17 -136l-67 -11l18 149h-196zM672 193h136l22 173z" />
<glyph unicode="&#xbd;" horiz-adv-x="1052" d="M155 -30l816 995l82 9l-813 -996zM170 505l7 29l117 19l44 366h-108l6 31l168 31h11l-53 -430l109 -13l-9 -33h-292zM637 0l3 41l108 82q45 36 74 62.5t57 66.5t33 78q2 10 1 28q0 74 -70 74q-66 0 -120 -103l-32 13q20 55 72 99.5t110 44.5q116 0 116 -110q0 -8 -1 -28 q-4 -32 -21 -63.5t-45 -61t-51.5 -49.5t-59.5 -48t-49 -40l-42 -30h194l46 70l28 -4l-38 -122h-313z" />
<glyph unicode="&#xbe;" horiz-adv-x="1050" d="M155 -30l816 995l82 9l-813 -996zM160 543q0 17 15.5 29.5t40.5 14.5q0 -16 21 -39t47 -23q95 0 108 96q0 2 0.5 5t0.5 4q0 36 -30.5 65.5t-80.5 29.5h-7v26q17 5 39.5 16t53.5 39t35 61q1 4 1 11q0 26 -15 42t-47 16q-55 0 -88 -61l-28 11q11 36 54 69.5t93 33.5 q44 0 74.5 -25t30.5 -64q0 -7 -1 -12q-5 -45 -36 -75.5t-74 -46.5v-4q46 -7 73 -36.5t27 -67.5q0 -8 -1 -13q-8 -65 -68.5 -110t-139.5 -45q-47 0 -72.5 15.5t-25.5 37.5zM602 174l286 307l26 -8q-12 -69 -28 -198l-10 -82h103l-13 -51h-96l-17 -136l-67 -11l18 149h-196z M672 193h136l22 173z" />
<glyph unicode="&#xbf;" horiz-adv-x="672" d="M69 -26q0 128 71 196q55 53 145 97l49 25q18 10 39 26.5t33 34.5q19 29 19 67q0 46 -6 99l76 17q44 -81 44 -171q0 -112 -72 -168q-48 -38 -149 -83q-45 -20 -74.5 -40.5t-47.5 -50.5q-21 -33 -21 -78q0 -65 42.5 -111.5t93.5 -46.5q125 0 203 72q26 -11 42 -38t16 -63 q0 -46 -50 -92q-26 -24 -71 -38.5t-99 -14.5q-119 0 -201 103.5t-82 257.5zM384 797q0 60 39 99.5t98 39.5q40 0 73 -34t33 -72q0 -60 -40.5 -100t-100.5 -40q-45 0 -73.5 32t-28.5 75z" />
<glyph unicode="&#xc0;" horiz-adv-x="1159" d="M-32 0l18 74l149 55l592 1110l147 31l189 -1146l124 -43l-18 -81h-485l20 74l172 55l-56 304h-401l-153 -309l170 -43l-22 -81h-446zM471 534h335l-79 502zM611 1663l116 38l132 -335l-58 -34z" />
<glyph unicode="&#xc1;" horiz-adv-x="1159" d="M-32 0l18 74l149 55l592 1110l147 31l189 -1146l124 -43l-18 -81h-485l20 74l172 55l-56 304h-401l-153 -309l170 -43l-22 -81h-446zM471 534h335l-79 502zM800 1383l122 326l113 -40l-184 -317z" />
<glyph unicode="&#xc2;" horiz-adv-x="1159" d="M-32 0l18 74l149 55l592 1110l147 31l189 -1146l124 -43l-18 -81h-485l20 74l172 55l-56 304h-401l-153 -309l170 -43l-22 -81h-446zM471 534h335l-79 502zM608 1390l169 180l54 13l179 -186l-50 -36l-163 110h-10l-141 -111z" />
<glyph unicode="&#xc3;" horiz-adv-x="1159" d="M-32 0l18 74l149 55l592 1110l147 31l189 -1146l124 -43l-18 -81h-485l20 74l172 55l-56 304h-401l-153 -309l170 -43l-22 -81h-446zM471 534h335l-79 502zM577 1381q2 5 2 9q5 20 18 48q17 36 39 59q28 28 63 28q4 0 6.5 -0.5t6.5 -0.5l223 -30h4q11 0 25 10t23 21l8 10 l48 -1q-1 -2 -2 -8t-2 -8q-13 -41 -40 -78q-37 -50 -87 -50h-11l-224 31h-3q-12 0 -27 -11.5t-24 -24.5l-8 -12z" />
<glyph unicode="&#xc4;" horiz-adv-x="1159" d="M-32 0l18 74l149 55l592 1110l147 31l189 -1146l124 -43l-18 -81h-485l20 74l172 55l-56 304h-401l-153 -309l170 -43l-22 -81h-446zM471 534h335l-79 502zM590 1467q0 34 25 56t59 22q36 0 61 -22.5t25 -55.5q0 -35 -25 -58t-61 -23q-35 0 -59.5 23.5t-24.5 57.5z M858 1467q0 34 25 56t59 22q36 0 62 -22.5t26 -55.5q0 -35 -26 -58t-62 -23q-35 0 -59.5 23.5t-24.5 57.5z" />
<glyph unicode="&#xc5;" horiz-adv-x="1159" d="M-32 0l18 74l149 55l592 1110l147 31l189 -1146l124 -43l-18 -81h-485l20 74l172 55l-56 304h-401l-153 -309l170 -43l-22 -81h-446zM471 534h335l-79 502zM648 1530q0 70 49.5 121t118.5 51q71 0 113.5 -44.5t42.5 -117.5t-48 -124t-121 -51q-70 0 -112.5 44.5 t-42.5 120.5zM719 1542q0 -53 26 -91t70 -38q41 0 63.5 29.5t22.5 84.5q0 54 -26.5 90.5t-69.5 36.5q-41 0 -63.5 -31.5t-22.5 -80.5z" />
<glyph unicode="&#xc6;" horiz-adv-x="1617" d="M-45 0l19 76l137 55l857 1115h739l-79 -316l-80 13l-5 212h-416l-77 -473h247l60 122l92 7l-92 -386l-87 -15l-3 177h-231l-78 -491h443l131 233l74 -15l-77 -314h-455h-422h-50l20 74l162 45l5 2l55 352h-343l-260 -347l171 -43l-22 -83h-435zM566 567h291l79 493z" />
<glyph unicode="&#xc7;" horiz-adv-x="1149" d="M169 483q0 146 59 297q65 168 179 283q132 134 299 183q94 26 196 26q217 0 327 -101l-83 -332l-81 13l-3 220q-28 49 -88 76.5t-145 27.5q-87 0 -168 -46t-144 -128q-64 -84 -100.5 -204.5t-36.5 -258.5q0 -107 29 -191.5t81 -136.5q103 -105 254 -105q183 0 348 152 l38 -55q-168 -197 -410 -225l-38 -54q89 -79 89 -151q0 -103 -200 -163l-20 59q41 14 63.5 36.5t22.5 46.5q0 41 -73 111l78 112q-198 4 -332 133q-66 63 -103.5 160.5t-37.5 214.5z" />
<glyph unicode="&#xc8;" horiz-adv-x="1135" d="M83 0l15 74l165 47l159 1007l-167 42l16 76h955l-80 -320l-81 14l-5 215h-451l-75 -477h278l61 119l91 14l-92 -389l-85 -13l-5 175h-263l-77 -488h474l131 230l78 -12l-79 -314h-963zM677 1663l115 38l133 -335l-58 -34z" />
<glyph unicode="&#xc9;" horiz-adv-x="1135" d="M83 0l15 74l165 47l159 1007l-167 42l16 76h955l-80 -320l-81 14l-5 215h-451l-75 -477h278l61 119l91 14l-92 -389l-85 -13l-5 175h-263l-77 -488h474l131 230l78 -12l-79 -314h-963zM791 1383l122 326l113 -40l-184 -317z" />
<glyph unicode="&#xca;" horiz-adv-x="1135" d="M83 0l15 74l165 47l159 1007l-167 42l16 76h955l-80 -320l-81 14l-5 215h-451l-75 -477h278l61 119l91 14l-92 -389l-85 -13l-5 175h-263l-77 -488h474l131 230l78 -12l-79 -314h-963zM599 1390l169 180l54 13l179 -186l-50 -36l-164 110h-9l-141 -111z" />
<glyph unicode="&#xcb;" horiz-adv-x="1135" d="M83 0l15 74l165 47l159 1007l-167 42l16 76h955l-80 -320l-81 14l-5 215h-451l-75 -477h278l61 119l91 14l-92 -389l-85 -13l-5 175h-263l-77 -488h474l131 230l78 -12l-79 -314h-963zM581 1467q0 34 25 56t59 22q36 0 61 -22.5t25 -55.5q0 -35 -25 -58t-61 -23 q-35 0 -59.5 23.5t-24.5 57.5zM849 1467q0 34 25 56t59 22q36 0 61.5 -22.5t25.5 -55.5q0 -35 -25.5 -58t-61.5 -23q-35 0 -59.5 23.5t-24.5 57.5z" />
<glyph unicode="&#xcc;" horiz-adv-x="670" d="M83 0l15 74l165 47l159 1007l-167 42l16 76h520l-17 -76l-169 -38l-160 -1018l170 -33l-19 -81h-513zM341 1663l116 38l132 -335l-58 -34z" />
<glyph unicode="&#xcd;" horiz-adv-x="670" d="M83 0l15 74l165 47l159 1007l-167 42l16 76h520l-17 -76l-169 -38l-160 -1018l170 -33l-19 -81h-513zM521 1383l123 326l112 -40l-184 -317z" />
<glyph unicode="&#xce;" horiz-adv-x="670" d="M83 0l15 74l165 47l159 1007l-167 42l16 76h520l-17 -76l-169 -38l-160 -1018l170 -33l-19 -81h-513zM346 1390l168 180l55 13l179 -186l-50 -36l-164 110h-10l-140 -111z" />
<glyph unicode="&#xcf;" horiz-adv-x="670" d="M83 0l15 74l165 47l159 1007l-167 42l16 76h520l-17 -76l-169 -38l-160 -1018l170 -33l-19 -81h-513zM328 1467q0 34 25 56t59 22q36 0 61 -22.5t25 -55.5q0 -35 -25.5 -58t-60.5 -23t-59.5 23.5t-24.5 57.5zM596 1467q0 34 25 56t59 22q36 0 62 -22.5t26 -55.5 q0 -35 -26.5 -58t-61.5 -23t-59.5 23.5t-24.5 57.5z" />
<glyph unicode="&#xd0;" horiz-adv-x="1350" d="M73 0l20 74l172 55l68 425l-153 -6l27 100l140 7l72 450l-161 30l20 76q305 50 500 50q262 0 411 -98q66 -44 111.5 -107t64.5 -135q18 -69 18 -152q0 -241 -153 -438q-160 -207 -416 -288q-135 -43 -288 -43h-453zM442 104h140q127 0 239 49t188 133q75 84 117 192.5 t42 226.5q0 198 -107 321q-54 63 -140 97.5t-196 34.5q-60 0 -118 -7l-78 -489l288 13l-28 -101l-275 -12z" />
<glyph unicode="&#xd1;" horiz-adv-x="1359" d="M84 0l14 74l166 47l157 999l-165 50l16 76h334l460 -973l134 855l-170 42l18 76h453l-18 -76l-165 -38l-179 -1132l-146 -30l-476 993l-134 -849l172 -33l-18 -81h-453zM651 1381q2 5 2 9q5 20 19 48q17 36 39 59q28 28 62 28q4 0 6.5 -0.5t7.5 -0.5l223 -30h3 q11 0 25 10t23 21l8 10l48 -1q-1 -2 -2 -8t-2 -8q-13 -41 -39 -78q-37 -50 -87 -50h-12l-223 31h-3q-12 0 -27.5 -11.5t-24.5 -24.5l-8 -12z" />
<glyph unicode="&#xd2;" horiz-adv-x="1341" d="M175 506q0 162 53 304.5t149 245.5q97 103 234 161t294 58q108 0 196 -42t146 -118q116 -153 116 -381q0 -253 -127 -443q-134 -201 -354 -277q-113 -40 -242 -40h-6q-137 0 -243 69.5t-161 191.5q-55 121 -55 271zM394 529q0 -150 44 -259q50 -122 145 -166 q50 -25 115 -25q159 0 261 86q89 74 137 205q39 110 50 238q4 60 4 107q-1 180 -71 316q-36 69 -97 108t-138 39q-79 0 -147.5 -23t-115.5 -63q-44 -37 -79 -92t-56 -114q-39 -110 -48 -244q-4 -60 -4 -113zM791 1666l116 38l132 -334l-58 -35z" />
<glyph unicode="&#xd3;" horiz-adv-x="1341" d="M175 506q0 162 53 304.5t149 245.5q97 103 234 161t294 58q108 0 196 -42t146 -118q116 -153 116 -381q0 -253 -127 -443q-134 -201 -354 -277q-113 -40 -242 -40h-6q-137 0 -243 69.5t-161 191.5q-55 121 -55 271zM394 529q0 -150 44 -259q50 -122 145 -166 q50 -25 115 -25q159 0 261 86q89 74 137 205q39 110 50 238q4 60 4 107q-1 180 -71 316q-36 69 -97 108t-138 39q-79 0 -147.5 -23t-115.5 -63q-44 -37 -79 -92t-56 -114q-39 -110 -48 -244q-4 -60 -4 -113zM938 1386l122 326l113 -40l-184 -317z" />
<glyph unicode="&#xd4;" horiz-adv-x="1341" d="M175 506q0 162 53 304.5t149 245.5q97 103 234 161t294 58q108 0 196 -42t146 -118q116 -153 116 -381q0 -253 -127 -443q-134 -201 -354 -277q-113 -40 -242 -40h-6q-137 0 -243 69.5t-161 191.5q-55 121 -55 271zM394 529q0 -150 44 -259q50 -122 145 -166 q50 -25 115 -25q159 0 261 86q89 74 137 205q39 110 50 238q4 60 4 107q-1 180 -71 316q-36 69 -97 108t-138 39q-79 0 -147.5 -23t-115.5 -63q-44 -37 -79 -92t-56 -114q-39 -110 -48 -244q-4 -60 -4 -113zM713 1393l169 180l54 13l179 -185l-50 -36l-163 109h-10 l-141 -111z" />
<glyph unicode="&#xd5;" horiz-adv-x="1341" d="M175 506q0 162 53 304.5t149 245.5q97 103 234 161t294 58q108 0 196 -42t146 -118q116 -153 116 -381q0 -253 -127 -443q-134 -201 -354 -277q-113 -40 -242 -40h-6q-137 0 -243 69.5t-161 191.5q-55 121 -55 271zM394 529q0 -150 44 -259q50 -122 145 -166 q50 -25 115 -25q159 0 261 86q89 74 137 205q39 110 50 238q4 60 4 107q-1 180 -71 316q-36 69 -97 108t-138 39q-79 0 -147.5 -23t-115.5 -63q-44 -37 -79 -92t-56 -114q-39 -110 -48 -244q-4 -60 -4 -113zM682 1385q2 5 2 8q5 20 18 49q17 36 39 58q28 28 63 29 q4 0 6.5 -1t6.5 -1l224 -30h3q11 0 25 10t23 22l8 9l48 -1q-1 -2 -2 -7.5t-2 -8.5q-13 -41 -40 -78q-37 -50 -87 -50h-11l-224 31h-3q-12 0 -27 -11.5t-24 -24.5l-8 -12z" />
<glyph unicode="&#xd6;" horiz-adv-x="1341" d="M175 506q0 162 53 304.5t149 245.5q97 103 234 161t294 58q108 0 196 -42t146 -118q116 -153 116 -381q0 -253 -127 -443q-134 -201 -354 -277q-113 -40 -242 -40h-6q-137 0 -243 69.5t-161 191.5q-55 121 -55 271zM394 529q0 -150 44 -259q50 -122 145 -166 q50 -25 115 -25q159 0 261 86q89 74 137 205q39 110 50 238q4 60 4 107q-1 180 -71 316q-36 69 -97 108t-138 39q-79 0 -147.5 -23t-115.5 -63q-44 -37 -79 -92t-56 -114q-39 -110 -48 -244q-4 -60 -4 -113zM695 1471q0 34 25 55.5t59 21.5q36 0 61 -21.5t25 -55.5 q0 -35 -25 -58t-61 -23q-35 0 -59.5 23t-24.5 58zM963 1471q0 34 25 55.5t59 21.5q36 0 62 -22t26 -55q0 -35 -26 -58t-62 -23q-35 0 -59.5 23t-24.5 58z" />
<glyph unicode="&#xd7;" horiz-adv-x="655" d="M142 311l179 152l-129 157l93 67l129 -154l191 160l52 -84l-181 -151l134 -160l-94 -66l-131 157l-190 -161z" />
<glyph unicode="&#xd8;" horiz-adv-x="1341" d="M175 506q0 162 53 304.5t149 245.5q97 103 234 161t294 58q117 0 212 -51l43 65l134 8l-89 -136q23 -21 42 -46q116 -153 116 -381q0 -253 -127 -443q-134 -201 -354 -277q-113 -40 -242 -40h-6q-103 0 -188 38l-57 -86l-132 -9l99 151q-81 65 -126 167q-55 121 -55 271z M345 91q0 -12 353 -12q159 0 261 86q89 74 137 205q39 110 50 238q4 60 4 107q0 172 -64 304l-573 -868q3 -3 3 -5q0 -11 -43 -22.5t-85.5 -20t-42.5 -12.5zM394 528q0 -184 70 -311l7 -13l576 876q-79 98 -203 98q-79 0 -147.5 -23t-115.5 -63q-89 -75 -135 -207 q-39 -112 -48 -245q-4 -60 -4 -112z" />
<glyph unicode="&#xd9;" horiz-adv-x="1358" d="M219 1170l18 76h517l-15 -76l-169 -38l-99 -637q-10 -62 -10 -111q0 -146 72.5 -218.5t206.5 -72.5q117 0 195 49q68 42 111 121q33 62 53 147q6 26 14 71l102 647l-165 42l15 76h456l-16 -76l-168 -38l-104 -632q-89 -526 -574 -526q-115 0 -203 41q-56 26 -93.5 66.5 t-61.5 105.5q-26 67 -26 157q0 56 10 126l105 658zM801 1663l116 38l133 -335l-58 -34z" />
<glyph unicode="&#xda;" horiz-adv-x="1358" d="M219 1170l18 76h517l-15 -76l-169 -38l-99 -637q-10 -62 -10 -111q0 -146 72.5 -218.5t206.5 -72.5q117 0 195 49q68 42 111 121q33 62 53 147q6 26 14 71l102 647l-165 42l15 76h456l-16 -76l-168 -38l-104 -632q-89 -526 -574 -526q-115 0 -203 41q-56 26 -93.5 66.5 t-61.5 105.5q-26 67 -26 157q0 56 10 126l105 658zM883 1375l122 326l112 -40l-183 -318z" />
<glyph unicode="&#xdb;" horiz-adv-x="1358" d="M219 1170l18 76h517l-15 -76l-169 -38l-99 -637q-10 -62 -10 -111q0 -146 72.5 -218.5t206.5 -72.5q117 0 195 49q68 42 111 121q33 62 53 147q6 26 14 71l102 647l-165 42l15 76h456l-16 -76l-168 -38l-104 -632q-89 -526 -574 -526q-115 0 -203 41q-56 26 -93.5 66.5 t-61.5 105.5q-26 67 -26 157q0 56 10 126l105 658zM724 1390l168 180l55 13l179 -186l-50 -36l-164 110h-10l-140 -111z" />
<glyph unicode="&#xdc;" horiz-adv-x="1358" d="M219 1170l18 76h517l-15 -76l-169 -38l-99 -637q-10 -62 -10 -111q0 -146 72.5 -218.5t206.5 -72.5q117 0 195 49q68 42 111 121q33 62 53 147q6 26 14 71l102 647l-165 42l15 76h456l-16 -76l-168 -38l-104 -632q-89 -526 -574 -526q-115 0 -203 41q-56 26 -93.5 66.5 t-61.5 105.5q-26 67 -26 157q0 56 10 126l105 658zM706 1467q0 34 25 56t59 22q36 0 61 -22.5t25 -55.5q0 -35 -25.5 -58t-60.5 -23t-59.5 23.5t-24.5 57.5zM974 1467q0 34 25 56t59 22q36 0 62 -22.5t26 -55.5q0 -35 -26.5 -58t-61.5 -23t-59.5 23.5t-24.5 57.5z" />
<glyph unicode="&#xdd;" horiz-adv-x="1057" d="M156 1170l19 76h478l-18 -76l-157 -38l192 -493l328 489l-166 42l15 76h423l-14 -76l-126 -38l-424 -603l-66 -415l154 -33l-18 -81h-485l17 74l150 47l61 385l-241 622zM756 1383l122 326l113 -40l-184 -317z" />
<glyph unicode="&#xde;" horiz-adv-x="1084" d="M83 0l15 74l165 47l159 1007l-167 42l16 76h520l-17 -76l-169 -38l-14 -95q65 5 127 5q146 0 246 -38q113 -43 156 -140q23 -52 23 -121q0 -99 -40.5 -187.5t-110.5 -149.5q-69 -61 -159.5 -95.5t-184.5 -34.5q-50 0 -107 9l-7 82h52q175 0 263.5 85.5t88.5 250.5 q0 118 -64 187t-187 69l-103 -4l-7 -4l-132 -837l170 -33l-19 -81h-513z" />
<glyph unicode="&#xdf;" horiz-adv-x="980" d="M50 0l17 76l124 33l106 677h-119l16 68l119 36q22 103 86 196.5t149 148.5q84 54 163 54q125 0 180 -68q48 -60 48 -137q0 -75 -47 -135q-21 -26 -97 -101q-62 -59 -81 -103q-13 -30 -13 -63q0 -92 105 -179q7 -7 28 -24l31 -25q9 -7 26.5 -23t28.5 -27t24 -27l22 -30 q31 -48 31 -102q0 -60 -31.5 -115t-82.5 -90q-105 -74 -211 -75q-102 0 -163.5 45.5t-61.5 111.5q0 50 33.5 85t89.5 41q47 -193 141 -193h1q55 0 97 35t42 92q0 60 -107 143q-81 64 -112 95q-32 35 -54 74q-31 56 -31 121q0 85 81 191l68 87q81 102 81 174q0 58 -26.5 85.5 t-87.5 27.5q-77 0 -119 -51.5t-60 -170.5l-149 -958h-285z" />
<glyph unicode="&#xe0;" horiz-adv-x="855" d="M120 275q0 112 31.5 212t85.5 174q108 147 256 201q71 25 138 25q130 0 185 -35l17 -18l-71 -455q-26 -175 -27 -217q0 -34 9.5 -48t33.5 -18l68 -12l-20 -69q-69 -30 -140 -30q-53 0 -86 25t-33 73v11l3 38h-12q-38 -68 -102 -111t-134 -43q-93 0 -147.5 79t-54.5 218z M282 321q0 -215 121 -215q50 0 88.5 23t83.5 73l86 546q-36 34 -114 34h-5q-74 0 -136 -69t-93 -178q-31 -103 -31 -214zM527 1309l116 38l132 -335l-58 -34z" />
<glyph unicode="&#xe1;" horiz-adv-x="855" d="M120 275q0 112 31.5 212t85.5 174q108 147 256 201q71 25 138 25q130 0 185 -35l17 -18l-71 -455q-26 -175 -27 -217q0 -34 9.5 -48t33.5 -18l68 -12l-20 -69q-69 -30 -140 -30q-53 0 -86 25t-33 73v11l3 38h-12q-38 -68 -102 -111t-134 -43q-93 0 -147.5 79t-54.5 218z M282 321q0 -215 121 -215q50 0 88.5 23t83.5 73l86 546q-36 34 -114 34h-5q-74 0 -136 -69t-93 -178q-31 -103 -31 -214zM658 1029l122 326l112 -40l-183 -317z" />
<glyph unicode="&#xe2;" horiz-adv-x="855" d="M120 275q0 112 31.5 212t85.5 174q108 147 256 201q71 25 138 25q130 0 185 -35l17 -18l-71 -455q-26 -175 -27 -217q0 -34 9.5 -48t33.5 -18l68 -12l-20 -69q-69 -30 -140 -30q-53 0 -86 25t-33 73v11l3 38h-12q-38 -68 -102 -111t-134 -43q-93 0 -147.5 79t-54.5 218z M282 321q0 -215 121 -215q50 0 88.5 23t83.5 73l86 546q-36 34 -114 34h-5q-74 0 -136 -69t-93 -178q-31 -103 -31 -214zM482 1036l169 180l55 13l178 -185l-49 -37l-164 110h-10l-141 -111z" />
<glyph unicode="&#xe3;" horiz-adv-x="855" d="M120 275q0 112 31.5 212t85.5 174q108 147 256 201q71 25 138 25q130 0 185 -35l17 -18l-71 -455q-26 -175 -27 -217q0 -34 9.5 -48t33.5 -18l68 -12l-20 -69q-69 -30 -140 -30q-53 0 -86 25t-33 73v11l3 38h-12q-38 -68 -102 -111t-134 -43q-93 0 -147.5 79t-54.5 218z M282 321q0 -215 121 -215q50 0 88.5 23t83.5 73l86 546q-36 34 -114 34h-5q-74 0 -136 -69t-93 -178q-31 -103 -31 -214zM451 1027q2 5 2 9q5 20 18 48q17 36 39 59q28 28 63 28q4 0 6.5 -0.5t6.5 -0.5l224 -30h3q11 0 25 10t23 21l8 10l48 -1q-1 -2 -2 -8t-2 -8 q-13 -41 -40 -78q-37 -50 -86 -50h-12l-223 31h-4q-12 0 -27 -11.5t-24 -24.5l-8 -12z" />
<glyph unicode="&#xe4;" horiz-adv-x="855" d="M120 275q0 112 31.5 212t85.5 174q108 147 256 201q71 25 138 25q130 0 185 -35l17 -18l-71 -455q-26 -175 -27 -217q0 -34 9.5 -48t33.5 -18l68 -12l-20 -69q-69 -30 -140 -30q-53 0 -86 25t-33 73v11l3 38h-12q-38 -68 -102 -111t-134 -43q-93 0 -147.5 79t-54.5 218z M282 321q0 -215 121 -215q50 0 88.5 23t83.5 73l86 546q-36 34 -114 34h-5q-74 0 -136 -69t-93 -178q-31 -103 -31 -214zM464 1113q0 34 25 56t59 22q36 0 61 -22.5t25 -55.5q0 -35 -25 -58t-61 -23q-35 0 -59.5 23.5t-24.5 57.5zM732 1113q0 34 25 56t59 22q36 0 62 -22.5 t26 -55.5q0 -35 -26 -58t-62 -23q-35 0 -59.5 23.5t-24.5 57.5z" />
<glyph unicode="&#xe5;" horiz-adv-x="855" d="M120 275q0 112 31.5 212t85.5 174q108 147 256 201q71 25 138 25q130 0 185 -35l17 -18l-71 -455q-26 -175 -27 -217q0 -34 9.5 -48t33.5 -18l68 -12l-20 -69q-69 -30 -140 -30q-53 0 -86 25t-33 73v11l3 38h-12q-38 -68 -102 -111t-134 -43q-93 0 -147.5 79t-54.5 218z M282 321q0 -215 121 -215q50 0 88.5 23t83.5 73l86 546q-36 34 -114 34h-5q-74 0 -136 -69t-93 -178q-31 -103 -31 -214zM522 1176q0 70 49.5 121t119.5 51q71 0 113 -44.5t42 -117.5t-48 -124t-121 -51q-70 0 -112.5 44.5t-42.5 120.5zM593 1188q0 -53 26 -90.5t70 -37.5 q41 0 63.5 29t22.5 84q0 54 -26.5 90.5t-69.5 36.5q-41 0 -63.5 -31.5t-22.5 -80.5z" />
<glyph unicode="&#xe6;" horiz-adv-x="1212" d="M120 275q0 112 31.5 212t85.5 174q108 147 256 201q71 25 138 25q56 0 105.5 -23.5t66.5 -66.5q109 95 237 95q188 0 188 -228q0 -119 -47 -206l-409 -18q-7 -43 -8 -91q0 -130 60 -189q57 -57 146 -57q36 0 102.5 26.5t86.5 47.5l26 -45q-41 -63 -129.5 -112.5 t-179.5 -49.5q-198 0 -253 187q-20 -25 -55 -61q-112 -117 -246 -118q-93 0 -147.5 79t-54.5 218zM282 321q0 -215 121 -215q50 0 88.5 23t83.5 73l86 546q-36 34 -114 34h-5q-74 0 -136 -69t-93 -178q-31 -103 -31 -214zM782 513l273 21q21 43 21 113v6q-4 146 -96 146 q-59 0 -113 -70q-55 -70 -85 -216z" />
<glyph unicode="&#xe7;" horiz-adv-x="669" d="M124 308q0 103 30 199.5t79 168.5q48 69 108 121t121 79q60 26 112 26q79 0 124 -39t45 -105q0 -48 -39 -79t-100 -35q-5 62 -20 106q-18 57 -60 57q-37 0 -76 -34t-74 -94q-35 -61 -56.5 -153.5t-21.5 -194.5q0 -112 38 -175t114 -63q53 0 93 14.5t91 48.5l23 -50 q-35 -44 -86.5 -77.5t-106.5 -48.5l-40 -56q89 -78 89 -151q0 -103 -200 -163l-20 59q41 14 63.5 36.5t22.5 46.5q0 41 -73 111l75 107q-120 2 -187.5 91t-67.5 247z" />
<glyph unicode="&#xe8;" horiz-adv-x="733" d="M126 306q0 156 56 290t157 215t222 81q188 0 188 -235q0 -109 -48 -199l-408 -18q-7 -43 -8 -91q0 -130 60 -189q57 -57 146 -57q36 0 103 26.5t86 47.5l26 -45q-41 -63 -129.5 -112.5t-179.5 -49.5q-127 0 -199 85.5t-72 250.5zM304 513l272 21q21 43 21 113v6 q-4 146 -96 146q-58 0 -112 -70q-55 -70 -85 -216zM378 1309l116 38l132 -335l-58 -34z" />
<glyph unicode="&#xe9;" horiz-adv-x="733" d="M126 306q0 156 56 290t157 215t222 81q188 0 188 -235q0 -109 -48 -199l-408 -18q-7 -43 -8 -91q0 -130 60 -189q57 -57 146 -57q36 0 103 26.5t86 47.5l26 -45q-41 -63 -129.5 -112.5t-179.5 -49.5q-127 0 -199 85.5t-72 250.5zM304 513l272 21q21 43 21 113v6 q-4 146 -96 146q-58 0 -112 -70q-55 -70 -85 -216zM567 1021l122 326l112 -40l-183 -318z" />
<glyph unicode="&#xea;" horiz-adv-x="733" d="M126 306q0 156 56 290t157 215t222 81q188 0 188 -235q0 -109 -48 -199l-408 -18q-7 -43 -8 -91q0 -130 60 -189q57 -57 146 -57q36 0 103 26.5t86 47.5l26 -45q-41 -63 -129.5 -112.5t-179.5 -49.5q-127 0 -199 85.5t-72 250.5zM304 513l272 21q21 43 21 113v6 q-4 146 -96 146q-58 0 -112 -70q-55 -70 -85 -216zM367 1042l169 180l54 14l178 -186l-49 -36l-164 109h-10l-141 -111z" />
<glyph unicode="&#xeb;" horiz-adv-x="733" d="M126 306q0 156 56 290t157 215t222 81q188 0 188 -235q0 -109 -48 -199l-408 -18q-7 -43 -8 -91q0 -130 60 -189q57 -57 146 -57q36 0 103 26.5t86 47.5l26 -45q-41 -63 -129.5 -112.5t-179.5 -49.5q-127 0 -199 85.5t-72 250.5zM304 513l272 21q21 43 21 113v6 q-4 146 -96 146q-58 0 -112 -70q-55 -70 -85 -216zM371 1113q0 34 25 56t59 22q36 0 61 -22.5t25 -55.5q0 -35 -25.5 -58t-60.5 -23t-59.5 23.5t-24.5 57.5zM638 1113q0 34 25 56t59 22q36 0 62 -22.5t26 -55.5q0 -35 -26 -58t-62 -23q-35 0 -59.5 23.5t-24.5 57.5z" />
<glyph unicode="&#xec;" horiz-adv-x="497" d="M60 0l19 73l122 33l101 642l-131 21l10 76l275 25l20 -23l-116 -744l126 -32l-17 -71h-409zM187 1309l116 38l131 -335l-57 -34z" />
<glyph unicode="&#xed;" horiz-adv-x="497" d="M61 0l18 73l123 33l101 642l-131 21l10 76l275 25l19 -23l-115 -744l125 -32l-16 -71h-409zM385 1029l122 326l113 -40l-184 -317z" />
<glyph unicode="&#xee;" horiz-adv-x="497" d="M61 0l18 73l123 33l101 642l-131 21l10 76l275 25l19 -23l-115 -744l125 -32l-16 -71h-409zM243 1036l169 180l55 13l178 -185l-49 -37l-164 110h-10l-141 -111z" />
<glyph unicode="&#xef;" horiz-adv-x="497" d="M61 0l18 73l123 33l101 642l-131 21l10 76l275 25l19 -23l-115 -744l125 -32l-16 -71h-409zM225 1113q0 34 25 56t59 22q36 0 61 -22.5t25 -55.5q0 -35 -25 -58t-61 -23q-35 0 -59.5 23.5t-24.5 57.5zM493 1113q0 34 25 56t59 22q36 0 62 -22.5t26 -55.5q0 -35 -26 -58 t-62 -23q-35 0 -59.5 23.5t-24.5 57.5z" />
<glyph unicode="&#xf0;" horiz-adv-x="895" d="M128 331q0 113 28 210.5t77 163.5q46 63 108 108.5t126 66.5q63 20 124 20q36 0 76 -17q48 -21 58 -74h7q-14 97 -76 263l-212 -41l23 77l164 33q-42 88 -106 164h111q69 -61 124 -134l146 32l-23 -78l-86 -17q55 -101 78.5 -205t23.5 -244.5t-28 -260t-76 -199.5 q-46 -75 -108 -127.5t-126 -75.5q-63 -22 -127 -22q-142 0 -224 91t-82 266zM304 361q0 -139 41.5 -214.5t125.5 -75.5q114 0 182.5 126.5t68.5 348.5q0 118 -40.5 189.5t-114.5 71.5q-90 0 -153 -60q-69 -67 -96 -210q-14 -80 -14 -176z" />
<glyph unicode="&#xf1;" horiz-adv-x="927" d="M63 0l21 74l121 34l96 635l-131 21l14 83l278 25l21 -23l-35 -126h12q52 69 134.5 120.5t153.5 51.5t105.5 -40t34.5 -132q0 -45 -10 -109l-79 -510l124 -28l-21 -73h-267l-11 12l82 511q12 84 12 113q0 58 -20 81.5t-63 23.5q-101 0 -183 -79l-90 -559l123 -32l-18 -74 h-404zM392 1027q2 5 3 9q5 20 18 48q17 36 39 59q28 28 62 28q4 0 7 -0.5t7 -0.5l223 -30h3q11 0 25 10t23 21l9 10l48 -1q-1 -2 -2.5 -8t-2.5 -8q-13 -41 -39 -78q-37 -50 -87 -50h-12l-223 31h-3q-12 0 -27.5 -11.5t-24.5 -24.5l-8 -12z" />
<glyph unicode="&#xf2;" d="M122 329q0 103 35.5 206t97.5 183q62 81 150.5 129t185.5 48q132 0 197.5 -92t65.5 -267q0 -103 -33.5 -204t-92.5 -181q-60 -81 -145 -129t-178 -48q-89 0 -154 46.5t-97 127.5q-31 80 -32 181zM306 323q0 -155 60 -234q31 -41 72 -41q69 0 127.5 72.5t89.5 189.5 q30 114 30 240q0 125 -36.5 196t-100.5 71q-59 0 -106.5 -41t-76.5 -113q-59 -146 -59 -340zM458 1309l116 38l132 -335l-58 -34z" />
<glyph unicode="&#xf3;" d="M122 329q0 103 35.5 206t97.5 183q62 81 150.5 129t185.5 48q132 0 197.5 -92t65.5 -267q0 -103 -33.5 -204t-92.5 -181q-60 -81 -145 -129t-178 -48q-89 0 -154 46.5t-97 127.5q-31 80 -32 181zM306 323q0 -155 60 -234q31 -41 72 -41q69 0 127.5 72.5t89.5 189.5 q30 114 30 240q0 125 -36.5 196t-100.5 71q-59 0 -106.5 -41t-76.5 -113q-59 -146 -59 -340zM605 1029l123 326l112 -40l-183 -317z" />
<glyph unicode="&#xf4;" d="M122 329q0 103 35.5 206t97.5 183q62 81 150.5 129t185.5 48q132 0 197.5 -92t65.5 -267q0 -103 -33.5 -204t-92.5 -181q-60 -81 -145 -129t-178 -48q-89 0 -154 46.5t-97 127.5q-31 80 -32 181zM306 323q0 -155 60 -234q31 -41 72 -41q69 0 127.5 72.5t89.5 189.5 q30 114 30 240q0 125 -36.5 196t-100.5 71q-59 0 -106.5 -41t-76.5 -113q-59 -146 -59 -340zM380 1036l169 180l55 13l178 -185l-49 -37l-164 110h-10l-140 -111z" />
<glyph unicode="&#xf5;" d="M122 329q0 103 35.5 206t97.5 183q62 81 150.5 129t185.5 48q132 0 197.5 -92t65.5 -267q0 -103 -33.5 -204t-92.5 -181q-60 -81 -145 -129t-178 -48q-89 0 -154 46.5t-97 127.5q-31 80 -32 181zM306 323q0 -155 60 -234q31 -41 72 -41q69 0 127.5 72.5t89.5 189.5 q30 114 30 240q0 125 -36.5 196t-100.5 71q-59 0 -106.5 -41t-76.5 -113q-59 -146 -59 -340zM349 1027q2 5 3 9q5 20 18 48q17 36 39 59q28 28 62 28q4 0 7 -0.5t7 -0.5l223 -30h3q11 0 25 10t23 21l9 10l48 -1q-1 -2 -2.5 -8t-2.5 -8q-13 -41 -39 -78q-37 -50 -87 -50h-12 l-223 31h-3q-12 0 -27.5 -11.5t-24.5 -24.5l-8 -12z" />
<glyph unicode="&#xf6;" d="M122 329q0 103 35.5 206t97.5 183q62 81 150.5 129t185.5 48q132 0 197.5 -92t65.5 -267q0 -103 -33.5 -204t-92.5 -181q-60 -81 -145 -129t-178 -48q-89 0 -154 46.5t-97 127.5q-31 80 -32 181zM306 323q0 -155 60 -234q31 -41 72 -41q69 0 127.5 72.5t89.5 189.5 q30 114 30 240q0 125 -36.5 196t-100.5 71q-59 0 -106.5 -41t-76.5 -113q-59 -146 -59 -340zM362 1113q0 34 25.5 56t59.5 22q36 0 61 -22.5t25 -55.5q0 -35 -25.5 -58t-60.5 -23t-60 23.5t-25 57.5zM630 1113q0 34 25.5 56t59.5 22q36 0 61.5 -22.5t25.5 -55.5 q0 -35 -26 -58t-61 -23t-60 23.5t-25 57.5z" />
<glyph unicode="&#xf7;" horiz-adv-x="976" d="M146 455l29 106h813l-28 -106h-814zM396 205q0 57 39.5 96.5t96.5 39.5q43 0 70 -30t27 -73q0 -58 -38 -96t-94 -38q-39 0 -70 31.5t-31 69.5zM481 768q0 57 39 96t96 39q43 0 71 -30t28 -72q0 -58 -38 -96t-94 -38q-39 0 -70.5 31.5t-31.5 69.5z" />
<glyph unicode="&#xf8;" d="M88 -83l105 161q-24 31 -39 70q-31 80 -32 181q0 103 35.5 206t97.5 183q62 81 150.5 129t185.5 48q70 0 122 -27l48 72l128 9l-98 -150q63 -91 63 -263q0 -103 -33.5 -204t-92.5 -181q-60 -81 -145 -129t-178 -48q-76 0 -137 36l-55 -84zM306 323q0 -53 7 -100l340 515 q-36 79 -105 79q-59 0 -106.5 -41t-76.5 -113q-59 -146 -59 -340zM334 147q12 -33 32 -58q31 -41 72 -41q69 0 127.5 72.5t89.5 189.5q30 114 30 240q0 68 -9 113z" />
<glyph unicode="&#xf9;" horiz-adv-x="906" d="M141 771l10 74l282 25l20 -23l-79 -471q-16 -97 -16 -153t18.5 -81t61.5 -25q98 0 181 83l82 548l-134 23l10 74l287 25l19 -23l-76 -476q-23 -150 -23 -201q0 -39 9.5 -54.5t33.5 -19.5l66 -12l-18 -69q-69 -30 -140 -30q-60 0 -90 28t-30 86q0 17 2 32h-10 q-31 -56 -105 -103.5t-158 -47.5q-154 0 -154 184q0 41 9 101l72 483zM428 1309l116 38l133 -335l-58 -34z" />
<glyph unicode="&#xfa;" horiz-adv-x="906" d="M141 771l10 74l282 25l20 -23l-79 -471q-16 -97 -16 -153t18.5 -81t61.5 -25q98 0 181 83l82 548l-134 23l10 74l287 25l19 -23l-76 -476q-23 -150 -23 -201q0 -39 9.5 -54.5t33.5 -19.5l66 -12l-18 -69q-69 -30 -140 -30q-60 0 -90 28t-30 86q0 17 2 32h-10 q-31 -56 -105 -103.5t-158 -47.5q-154 0 -154 184q0 41 9 101l72 483zM576 1029l122 326l113 -40l-184 -317z" />
<glyph unicode="&#xfb;" horiz-adv-x="906" d="M141 771l10 74l282 25l20 -23l-79 -471q-16 -97 -16 -153t18.5 -81t61.5 -25q98 0 181 83l82 548l-134 23l10 74l287 25l19 -23l-76 -476q-23 -150 -23 -201q0 -39 9.5 -54.5t33.5 -19.5l66 -12l-18 -69q-69 -30 -140 -30q-60 0 -90 28t-30 86q0 17 2 32h-10 q-31 -56 -105 -103.5t-158 -47.5q-154 0 -154 184q0 41 9 101l72 483zM367 1036l169 180l55 13l178 -185l-49 -37l-164 110h-10l-141 -111z" />
<glyph unicode="&#xfc;" horiz-adv-x="906" d="M141 771l10 74l282 25l20 -23l-79 -471q-16 -97 -16 -153t18.5 -81t61.5 -25q98 0 181 83l82 548l-134 23l10 74l287 25l19 -23l-76 -476q-23 -150 -23 -201q0 -39 9.5 -54.5t33.5 -19.5l66 -12l-18 -69q-69 -30 -140 -30q-60 0 -90 28t-30 86q0 17 2 32h-10 q-31 -56 -105 -103.5t-158 -47.5q-154 0 -154 184q0 41 9 101l72 483zM333 1113q0 34 25 56t59 22q36 0 61 -22.5t25 -55.5q0 -35 -25.5 -58t-60.5 -23t-59.5 23.5t-24.5 57.5zM601 1113q0 34 25 56t59 22q36 0 62 -22.5t26 -55.5q0 -35 -26.5 -58t-61.5 -23t-59.5 23.5 t-24.5 57.5z" />
<glyph unicode="&#xfd;" horiz-adv-x="832" d="M-56 -268q0 71 71 127q67 -54 139 -54h3q49 0 86 29.5t83 115.5l18 35l-127 788l-95 31l17 71h385l-18 -69l-124 -40l85 -541l281 546l-123 33l20 71h334l-20 -74l-95 -32l-429 -822q-96 -184 -176 -255.5t-185 -71.5q-65 0 -97.5 30t-32.5 82zM614 1029l122 326l113 -40 l-184 -317z" />
<glyph unicode="&#xfe;" horiz-adv-x="873" d="M-44 -369l20 75l121 33l200 1406l-134 23l10 76l274 25l22 -23l-55 -399l-28 -124h12v-2h2q34 65 107.5 118t138.5 53q99 0 168 -104t69 -255q0 -124 -40 -230.5t-108 -176.5q-67 -69 -152 -106.5t-175 -37.5q-65 0 -93 11l22 115q14 -7 42 -13t45 -6q54 0 101 14 q31 9 55 24t49 45q50 59 69 174q11 61 11 140q0 117 -38.5 189.5t-93.5 72.5q-56 0 -94 -18t-93 -68l-139 -925l155 -31l-18 -75h-432z" />
<glyph unicode="&#xff;" horiz-adv-x="832" d="M-56 -268q0 71 71 127q67 -54 139 -54h3q49 0 86 29.5t83 115.5l18 35l-127 788l-95 31l17 71h385l-18 -69l-124 -40l85 -541l281 546l-123 33l20 71h334l-20 -74l-95 -32l-429 -822q-96 -184 -176 -255.5t-185 -71.5q-65 0 -97.5 30t-32.5 82zM371 1113q0 34 25 56 t59 22q36 0 61 -22.5t25 -55.5q0 -35 -25.5 -58t-60.5 -23t-59.5 23.5t-24.5 57.5zM639 1113q0 34 25 56t59 22q36 0 62 -22.5t26 -55.5q0 -35 -26.5 -58t-61.5 -23t-59.5 23.5t-24.5 57.5z" />
<glyph unicode="&#x152;" horiz-adv-x="1620" d="M175 506q0 162 52.5 304.5t148.5 245.5q97 103 234 161t294 58q89 0 166 -29h641l-80 -320l-81 14l-5 215h-380l-74 -477h206l61 119l91 14l-92 -389l-85 -13l-5 175h-191l-78 -488h403l131 230l78 -12l-80 -314h-694q-98 -26 -203 -26q-137 0 -243 69.5t-161 191.5 q-54 119 -54 266v5zM393 528q0 -184 70 -311q36 -65 96.5 -101.5t137.5 -36.5q58 1 113 14l169 1048q-60 37 -136 37q-79 0 -147.5 -23t-115.5 -63q-89 -75 -135 -207q-39 -112 -48 -245q-4 -60 -4 -112z" />
<glyph unicode="&#x153;" horiz-adv-x="1576" d="M122 329q0 103 35.5 206t97.5 183q62 81 150.5 129t185.5 48q163 0 225 -138q22 26 56 54q101 81 221 81q94 0 141.5 -61.5t47.5 -175.5q0 -107 -48 -197l-409 -18q-7 -43 -7 -91q0 -131 60 -189q57 -57 146 -57q36 0 103 26.5t86 47.5l26 -45q-41 -63 -129.5 -112.5 t-179.5 -49.5q-74 0 -129.5 28t-85.5 78q-13 23 -19 36q-60 -65 -135 -101.5t-156 -36.5q-89 0 -154 46.5t-97 127.5q-31 80 -32 181zM306 323q0 -155 60 -234q31 -41 72 -41q69 0 127.5 72.5t89.5 189.5q30 114 30 240q0 125 -36.5 196t-100.5 71q-59 0 -106.5 -41 t-76.5 -113q-59 -146 -59 -340zM836 513l272 21q22 45 22 119q-4 146 -96 146q-58 0 -113 -70t-85 -216z" />
<glyph unicode="&#x178;" horiz-adv-x="1057" d="M156 1170l19 76h478l-18 -76l-157 -38l192 -493l328 489l-166 42l15 76h423l-14 -76l-126 -38l-424 -603l-66 -415l154 -33l-18 -81h-485l17 74l150 47l61 385l-241 622zM543 1467q0 34 25.5 56t59.5 22q36 0 61 -22.5t25 -55.5q0 -35 -25.5 -58t-60.5 -23t-60 23.5 t-25 57.5zM811 1467q0 34 25.5 56t59.5 22q36 0 61.5 -22.5t25.5 -55.5q0 -35 -26 -58t-61 -23t-60 23.5t-25 57.5z" />
<glyph unicode="&#x2c6;" horiz-adv-x="649" d="M121 1390l168 180l55 13l179 -186l-50 -36l-164 110h-10l-140 -111z" />
<glyph unicode="&#x2dc;" horiz-adv-x="713" d="M124 1381q2 5 3 9q5 20 18 48q17 36 39 59q28 28 62 28q4 0 7 -0.5t7 -0.5l223 -30h3q11 0 25 10t23 21l9 10l48 -1q-1 -2 -2.5 -8t-2.5 -8q-13 -41 -39 -78q-37 -50 -87 -50h-12l-223 31h-3q-12 0 -27.5 -11.5t-24.5 -24.5l-8 -12z" />
<glyph unicode="&#x2013;" horiz-adv-x="815" d="M166 410l17 104l612 7l-17 -104z" />
<glyph unicode="&#x2014;" horiz-adv-x="1326" d="M167 410l17 104l1121 7l-16 -104z" />
<glyph unicode="&#x2018;" horiz-adv-x="441" d="M209 941q0 68 47 143q56 90 165 149q65 35 141 54l11 -69q-93 -24 -151.5 -77.5t-58.5 -106.5q0 -45 26 -71.5t75 -26.5q5 0 30 7q7 -31 6 -55q0 -54 -47 -94t-95 -40q-59 0 -99 37q-50 41 -50 150z" />
<glyph unicode="&#x2019;" horiz-adv-x="448" d="M201 821q93 24 151.5 77t58.5 106q0 45 -26 71.5t-75 26.5q-5 0 -30 -7q-7 31 -6 55q0 54 47 94t96 40q58 0 100 -36q48 -43 48 -151q0 -69 -46 -142q-56 -91 -165 -150q-65 -34 -141 -54z" />
<glyph unicode="&#x201a;" horiz-adv-x="447" d="M25 -245q93 24 151.5 77.5t58.5 106.5q0 45 -26 71t-75 26q-5 0 -30 -6q-7 31 -6 54q0 54 47 94t95 40q58 0 100 -35q49 -43 49 -152q0 -69 -46 -142q-56 -91 -165 -150q-65 -34 -142 -53z" />
<glyph unicode="&#x201c;" horiz-adv-x="756" d="M210 945q0 68 46 143q56 90 166 149q65 35 140 53l12 -69q-93 -24 -151.5 -77.5t-58.5 -106.5q0 -45 26 -71t75 -26q5 0 30 6q7 -31 6 -54q0 -54 -47 -94t-95 -40q-58 0 -99 36q-50 41 -50 151zM526 945q0 68 46 143q56 90 166 149q65 35 140 53l12 -69 q-93 -24 -151.5 -77.5t-58.5 -106.5q0 -45 26 -71t75 -26q5 0 30 6q7 -31 6 -54q0 -54 -47 -94t-95 -40q-58 0 -99 36q-50 41 -50 151z" />
<glyph unicode="&#x201d;" horiz-adv-x="763" d="M200 825q93 24 151.5 77.5t58.5 106.5q0 45 -26 71.5t-75 26.5q-5 0 -29 -7q-7 31 -7 55q0 54 47 94t95 40q58 0 100 -36q49 -43 49 -151q0 -69 -45 -143q-56 -91 -166 -149q-65 -34 -141 -54zM518 825q93 24 151.5 77.5t58.5 106.5q0 45 -26 71.5t-75 26.5q-5 0 -30 -7 q-7 31 -6 55q0 54 47 94t95 40q58 0 100 -36q49 -43 49 -151q0 -69 -46 -143q-56 -91 -165 -149q-65 -34 -142 -54z" />
<glyph unicode="&#x201e;" horiz-adv-x="765" d="M25 -255q93 24 151.5 77.5t58.5 106.5q0 45 -26 71t-75 26q-5 0 -30 -6q-7 31 -6 54q0 54 47 94t95 40q58 0 100 -35q49 -43 49 -151q0 -69 -46 -143q-56 -91 -165 -149q-65 -34 -142 -54zM342 -255q93 24 152 77.5t59 106.5q0 45 -26.5 71t-74.5 26q-5 0 -30 -6 q-7 31 -7 54q0 54 47.5 94t94.5 40q58 0 101 -35q48 -42 48 -147q0 -73 -45 -147q-56 -91 -166 -149q-65 -34 -141 -54z" />
<glyph unicode="&#x2022;" horiz-adv-x="520" d="M170 548q0 88 60 147t146 59q67 0 108.5 -45.5t41.5 -111.5q0 -89 -57 -146t-143 -57q-59 0 -107.5 48t-48.5 106z" />
<glyph unicode="&#x2026;" horiz-adv-x="1324" d="M99 73q0 60 40.5 100t100.5 40q45 0 73.5 -31.5t28.5 -75.5q0 -60 -39 -99.5t-98 -39.5q-40 0 -73 34t-33 72zM546 73q0 60 40.5 100t100.5 40q45 0 73.5 -31.5t28.5 -75.5q0 -60 -39 -99.5t-98 -39.5q-40 0 -73 34t-33 72zM1019 73q0 60 40.5 100t100.5 40 q45 0 73.5 -31.5t28.5 -75.5q0 -60 -39 -99.5t-98 -39.5q-40 0 -73 34t-33 72z" />
<glyph unicode="&#x2039;" horiz-adv-x="404" d="M94 450l2 20l323 352l36 -59l-213 -301l117 -321l-63 -63z" />
<glyph unicode="&#x203a;" horiz-adv-x="404" d="M89 141l220 321l-117 301l53 59l213 -352l-5 -20l-321 -372z" />
<glyph unicode="&#x20ac;" horiz-adv-x="1205" d="M136 486l35 106h78q5 31 13 70h-92l34 106h90q58 164 170 287q126 137 301 189q94 28 204 28q103 0 177 -23.5t135 -77.5l-84 -332l-84 13l-7 220q-33 55 -79 79.5t-131 24.5q-139 0 -244.5 -107.5t-156.5 -300.5h546l-46 -106h-521v-2q-7 -56 -8 -68h503l-47 -106h-461 v-1q0 -193 83.5 -297t235.5 -104q122 0 200 90l76 220l90 13l-15 -296q-107 -74 -201 -105t-216 -31q-139 0 -245 54.5t-168 161.5q-64 108 -64 259q0 10 1 18t1 18h-103z" />
<glyph unicode="&#x2122;" horiz-adv-x="929" d="M261 1231l10 89h295l-25 -93l-28 4v61h-68l-43 -265l50 -8l-9 -26h-158l4 24l47 12l43 263h-65l-26 -65zM528 993l5 24l46 12l61 256l-48 10l7 25h124l13 -51l38 -195l114 205l25 41h123l-7 -25l-46 -10l-27 -258l48 -8l-8 -26h-152l6 24l45 12l21 228l-140 -251l-51 -5 l-53 246l-52 -220l48 -8l-8 -26h-132z" />
<glyph unicode="&#xe000;" horiz-adv-x="875" d="M0 875h875v-875h-875v875z" />
<glyph unicode="&#xfb01;" horiz-adv-x="1085" d="M50 0l17 76l124 33l106 677h-119l16 68l119 36q22 106 80.5 198t137.5 147q79 54 156 54q81 0 124 -28.5t43 -85.5q0 -33 -26 -61t-76 -42q-11 32 -53 60.5t-84 28.5q-59 0 -89 -68q-23 -52 -37 -135l-13 -83h187l-25 -89h-176l-107 -677l208 -30l-18 -79h-495zM649 0 l18 73l123 33l101 642l-131 21l10 76l275 25l19 -23l-115 -744l125 -32l-16 -71h-409zM912 1199q0 46 35.5 79t83.5 33q50 0 86.5 -33t36.5 -80q0 -50 -36.5 -86.5t-86 -36.5t-84.5 36.5t-35 87.5z" />
<glyph unicode="&#xfb02;" horiz-adv-x="1054" d="M50 0l17 76l124 33l106 677h-119l16 68l119 36q22 106 80.5 198t137.5 147q79 54 156 54q81 0 124 -28.5t43 -85.5q0 -33 -26 -61t-76 -42q-11 32 -53 60.5t-84 28.5q-59 0 -89 -68q-23 -52 -37 -135l-13 -83h187l-25 -89h-176l-107 -677l208 -30l-18 -79h-495zM617 0 l18 74l123 34l165 1037l-132 21l11 76l272 25l21 -23l-179 -1140l128 -31l-18 -73h-409z" />
<glyph unicode="&#xfb03;" horiz-adv-x="1673" d="M50 0l17 76l124 33l106 677h-119l16 68l119 36q22 106 80.5 198t137.5 147q79 54 156 54q81 0 124 -28.5t43 -85.5q0 -33 -26 -61t-76 -42q-11 32 -53 60.5t-84 28.5q-59 0 -89 -68q-23 -52 -37 -135l-13 -83h187l-25 -89h-176l-107 -677l208 -30l-18 -79h-495zM638 0 l17 76l124 33l106 677h-119l16 68l119 36q22 106 80.5 198t137.5 147q79 54 156 54q81 0 124 -28.5t43 -85.5q0 -33 -26 -61t-76 -42q-11 32 -53 60.5t-84 28.5q-59 0 -89 -68q-23 -52 -37 -135l-13 -83h187l-25 -89h-176l-107 -677l208 -30l-18 -79h-495zM1237 0l18 73 l123 33l101 642l-131 21l10 76l275 25l19 -23l-115 -744l125 -32l-16 -71h-409zM1500 1199q0 46 35.5 79t83.5 33q50 0 86.5 -33t36.5 -80q0 -50 -36.5 -86.5t-86 -36.5t-84.5 36.5t-35 87.5z" />
<glyph unicode="&#xfb04;" horiz-adv-x="1642" d="M50 0l17 76l124 33l106 677h-119l16 68l119 36q22 106 80.5 198t137.5 147q79 54 156 54q81 0 124 -28.5t43 -85.5q0 -33 -26 -61t-76 -42q-11 32 -53 60.5t-84 28.5q-59 0 -89 -68q-23 -52 -37 -135l-13 -83h187l-25 -89h-176l-107 -677l208 -30l-18 -79h-495zM638 0 l17 76l124 33l106 677h-119l16 68l119 36q22 106 80.5 198t137.5 147q79 54 156 54q81 0 124 -28.5t43 -85.5q0 -33 -26 -61t-76 -42q-11 32 -53 60.5t-84 28.5q-59 0 -89 -68q-23 -52 -37 -135l-13 -83h187l-25 -89h-176l-107 -677l208 -30l-18 -79h-495zM1205 0l18 74 l123 34l165 1037l-132 21l11 76l272 25l21 -23l-179 -1140l128 -31l-18 -73h-409z" />
</font>
</defs>
</svg>
